<svg width="107" height="100" viewBox="0 0 107 100" fill="none" xmlns="http://www.w3.org/2000/svg">
<rect x="0.5" width="106" height="100" rx="50" fill="#F7F8FE"/>
<g clip-path="url(#clip0_2_1383)">
<path d="M34.9255 54.0858C34.3349 55.1273 34.0637 56.3195 34.1457 57.514C34.1763 57.9523 34.3436 60.1859 36.2497 61.6043C37.1926 62.2897 38.3334 62.6487 39.4988 62.6269C40.5713 65.0292 41.7966 67.3603 43.1674 69.6058C44.8897 72.4332 45.7851 73.8469 47.3802 75.025C49.2529 76.3536 51.4632 77.1255 53.7559 77.2515C56.1773 77.4124 58.5952 76.8908 60.7349 75.746C63.1994 74.41 64.4576 72.6429 66.154 70.2726C67.862 67.8704 69.2194 65.2373 70.1854 62.4525C71.1758 62.3698 72.1188 61.9923 72.8926 61.3687C74.3417 60.1482 74.5891 58.2798 74.8176 56.5574C75.0462 54.8351 74.7681 54.623 74.8789 52.5873C75.0014 50.2877 75.4208 49.3971 75.8402 47.1116C76.2468 44.9505 76.4284 42.753 76.3821 40.5544C76.1229 34.7983 71.8559 30.5007 70.8475 29.4805C65.6663 24.271 59.2458 23.6891 56.1027 23.4134C53.0939 23.133 47.1045 22.5911 43.1674 26.3539C42.7253 26.7771 42.3231 27.2401 41.9657 27.7369C40.3726 27.9886 38.8531 28.5835 37.5126 29.4805C34.0066 31.8626 33.0147 35.6654 32.461 37.7859C30.5077 45.2597 33.7545 51.9229 34.9255 54.0858Z" fill="white" stroke="#4540DB" stroke-width="1.64931" stroke-linecap="round" stroke-linejoin="round"/>
<path d="M74.8674 54.326C75.0559 54.326 75.1242 51.984 75.5742 48.3767C75.9394 45.4692 76.1609 44.8637 76.2811 43.6644C76.7829 38.8555 74.693 34.6922 74.0969 33.5848C70.9774 27.8146 65.4098 25.6469 62.858 24.6526C60.3959 23.6842 55.7189 21.9383 50.017 23.3614C47.0983 24.1055 44.3963 25.5279 42.1309 27.513C40.5757 27.8098 39.0969 28.419 37.7838 29.3037C34.424 31.5891 33.3095 35.0173 32.6969 36.9023C31.3068 41.1787 31.9147 44.8213 32.2539 46.7156C32.6943 49.1668 33.5298 51.5302 34.7279 53.7134C34.4351 50.5041 34.8237 47.2691 35.8683 44.2205C36.5751 42.173 37.3267 40.1302 39.3577 38.8861C40.7714 38.0167 42.1851 37.9437 43.1677 37.8824C46.8833 37.7034 49.7649 39.5317 51.0278 40.4506L47.7009 34.7228C51.8067 34.555 55.8865 35.4483 59.5465 37.3167C63.2064 39.1851 66.3229 41.9653 68.5953 45.3891C69.1809 45.0697 69.6959 44.6352 70.1093 44.1116C70.5227 43.5881 70.826 42.9864 71.0009 42.3426C71.6041 39.9582 70.0585 38.1322 69.9171 37.9696C71.1298 39.5274 72.1283 41.2406 72.8858 43.0636C75.2797 48.8409 74.5893 54.326 74.8674 54.326Z" fill="#BEBCFA" stroke="#4540DB" stroke-width="1.64931" stroke-linecap="round" stroke-linejoin="round"/>
<path d="M41.7258 51.0769C42.5315 50.3507 43.4907 49.8159 44.532 49.5124C47.1685 48.7584 49.3998 49.814 49.9865 50.1156" stroke="#4540DB" stroke-width="1.64931" stroke-linecap="round" stroke-linejoin="round"/>
<path d="M58.207 50.1157C59.6228 49.2494 61.303 48.9215 62.9405 49.1921C64.3264 49.4423 65.6011 50.1146 66.5902 51.117" stroke="#4540DB" stroke-width="1.64931" stroke-linecap="round" stroke-linejoin="round"/>
<path d="M53.4758 51.3574L52.5923 59.0998L57.3659 58.8641" stroke="#4540DB" stroke-width="1.64931" stroke-linecap="round" stroke-linejoin="round"/>
<path d="M50.6675 63.3501L58.9305 71.2903" stroke="#4540DB" stroke-width="1.64931" stroke-linecap="round" stroke-linejoin="round"/>
<path d="M59.0905 62.9495C56.0715 65.7423 53.0501 68.5359 50.0264 71.3303" stroke="#4540DB" stroke-width="1.64931" stroke-linecap="round" stroke-linejoin="round"/>
<path d="M46.4567 53.5933C47.4196 53.5933 48.2002 52.8127 48.2002 51.8498C48.2002 50.8868 47.4196 50.1062 46.4567 50.1062C45.4938 50.1062 44.7131 50.8868 44.7131 51.8498C44.7131 52.8127 45.4938 53.5933 46.4567 53.5933Z" fill="#4540DB" stroke="#4540DB" stroke-width="1.64931" stroke-linecap="round" stroke-linejoin="round"/>
<path d="M61.6161 53.3531C62.5791 53.3531 63.3597 52.5725 63.3597 51.6095C63.3597 50.6466 62.5791 49.866 61.6161 49.866C60.6532 49.866 59.8726 50.6466 59.8726 51.6095C59.8726 52.5725 60.6532 53.3531 61.6161 53.3531Z" fill="#4540DB" stroke="#4540DB" stroke-width="1.64931" stroke-linecap="round" stroke-linejoin="round"/>
</g>
<defs>
<clipPath id="clip0_2_1383">
<rect width="46.2136" height="56.1001" fill="white" transform="translate(31 22)"/>
</clipPath>
</defs>
</svg>
