<svg width="107" height="100" viewBox="0 0 107 100" fill="none" xmlns="http://www.w3.org/2000/svg">
<rect x="0.5" width="106" height="100" rx="50" fill="#F7F8FE"/>
<g clip-path="url(#clip0_2_1369)">
<path d="M61.577 44.9867C61.76 42.8042 61.0996 40.6346 59.7318 38.9242C58.3639 37.2138 56.3925 36.0927 54.2232 35.7914C53.7538 35.7237 50.383 35.3075 47.5518 37.7055C45.2288 39.6728 44.7569 42.429 44.648 43.0291C44.648 43.0726 44.6117 43.2444 44.5827 43.4525C44.4181 44.7375 44.4278 47.0097 46.0055 50.1264C44.348 46.9661 43.9632 43.9534 45.3038 42.625C45.8797 42.0539 46.6565 41.9305 48.2124 41.6885C50.2015 41.3788 52.0139 41.0981 53.8965 41.9982C56.28 43.1355 57.2238 45.4247 57.6037 46.3418C57.911 47.0823 59.0556 49.8384 57.8311 52.8922C57.623 53.4125 56.7446 55.6169 54.6394 56.7228C53.5771 57.2793 52.9455 57.1608 51.6122 57.8964C50.6374 58.4048 49.7756 59.1053 49.0787 59.9556C47.5034 61.9447 48.3068 63.295 46.7315 64.8993C46.3588 65.2768 45.3764 66.2786 44.0939 66.1745C43.0993 66.0947 42.0903 65.3639 41.5337 64.5242C41.5337 64.5242 41.4926 64.4613 41.4587 64.4032C41.1829 63.9435 40.6989 62.8013 41.3764 60.3888" stroke="#4540DB" stroke-width="1.69387" stroke-linecap="round" stroke-linejoin="round"/>
<path d="M39.1288 39.179C39.7533 37.4778 40.624 35.8774 41.7132 34.4289C42.7247 33.0787 44.2467 31.1041 47.0029 29.7248C49.3221 28.5988 51.9066 28.1333 54.4729 28.3794C56.4979 28.5141 58.4741 29.0608 60.2804 29.9862C62.023 30.9182 63.557 32.1961 64.7885 33.7417C66.9351 36.3332 68.2968 39.484 68.7134 42.8233C69.1974 47.1789 67.8012 50.4844 67.1672 51.9363C65.9427 54.7457 64.3191 56.592 62.8744 58.2278C59.99 61.5308 58.8067 61.5308 56.7257 64.541C56.3748 65.0492 55.5642 66.5785 53.9478 69.6372C51.8014 73.6928 51.436 74.5978 50.1487 75.631C48.7929 76.7622 47.0958 77.404 45.3308 77.4531C43.5525 77.46 41.827 76.8484 40.4501 75.723C37.51 73.2911 37.6455 69.55 37.6697 69.1121" stroke="#4540DB" stroke-width="1.69387" stroke-linecap="round" stroke-linejoin="round"/>
<path d="M55.2297 28.4399C55.7815 26.3637 56.3324 24.2867 56.8825 22.2089C59.3694 22.6803 61.7621 23.5566 63.9652 24.8029C65.3687 25.599 68.3983 27.3582 70.7601 30.6927C73.8889 35.1089 74.0365 39.7355 74.1478 42.9273C74.3175 47.9816 73.1186 52.9879 70.6778 57.4171C69.3188 59.8597 67.5973 62.0822 65.572 64.0086L60.9284 60.2337C63.5336 58.1056 65.6094 55.4019 66.9924 52.3355C67.7184 50.6973 68.9597 47.8322 68.7976 43.9702C68.742 42.6562 68.4588 37.7465 64.5799 33.5021C62.1092 30.8265 58.8208 29.0461 55.2297 28.4399Z" fill="#BEBCFA" stroke="#4540DB" stroke-width="1.69387" stroke-linecap="round" stroke-linejoin="round"/>
<path d="M55.8931 24.2272C53.9572 23.7302 51.9447 23.6046 49.9621 23.8569C44.8321 24.5224 41.5799 27.5834 40.2829 28.8393C39.1601 29.9282 35.5425 33.5337 34.7173 39.4671C34.3334 42.3273 34.6463 45.2378 35.6296 47.951" stroke="#4540DB" stroke-width="1.69387" stroke-linecap="round" stroke-linejoin="round"/>
<path d="M38.2234 47.4959C38.6033 47.5104 40.3045 47.5782 41.4756 48.8559C43.0727 50.5957 43.0243 53.8552 41.1054 55.6507C39.6535 57.0009 37.5531 57.1558 35.9585 56.5581C35.3172 56.3161 33.5387 55.4982 32.9918 53.5503C32.4062 51.4402 33.7564 49.7149 34.146 49.2672C34.2961 49.0954 35.8084 47.404 38.2234 47.4959Z" fill="#BEBCFA" stroke="#4540DB" stroke-width="1.69387" stroke-linecap="round" stroke-linejoin="round"/>
</g>
<defs>
<clipPath id="clip0_2_1369">
<rect width="43" height="56.9381" fill="white" transform="translate(32 21.3621)"/>
</clipPath>
</defs>
</svg>
