<svg width="107" height="100" viewBox="0 0 107 100" fill="none" xmlns="http://www.w3.org/2000/svg">
<rect x="0.5" width="106" height="100" rx="50" fill="#F7F8FE"/>
<g clip-path="url(#clip0_2_1431)">
<path d="M48.5105 31.2114C51.9059 31.2114 54.6583 28.459 54.6583 25.0636C54.6583 21.6683 51.9059 18.9159 48.5105 18.9159C45.1152 18.9159 42.3628 21.6683 42.3628 25.0636C42.3628 28.459 45.1152 31.2114 48.5105 31.2114Z" fill="white" stroke="#4540DB" stroke-width="1.83202" stroke-linecap="round" stroke-linejoin="round"/>
<path d="M42.8231 57.8805C41.197 64.5386 39.5709 71.1985 37.9447 77.8601C37.8553 78.4317 37.9661 79.0168 38.2585 79.5161C38.5508 80.0154 39.0067 80.3984 39.549 80.6002C40.1282 80.7997 40.7603 80.7804 41.3262 80.5461C41.8921 80.3119 42.3529 79.8787 42.6216 79.3283C44.1082 73.7816 45.6008 68.2358 47.0996 62.6909C47.6167 62.5137 48.1742 62.491 48.7039 62.6255C49.9366 62.9578 50.8657 64.2298 51.0411 65.8315C52.334 70.354 53.626 74.8756 54.9171 79.3963C54.9721 79.467 55.8593 80.5479 57.2569 80.3987C57.7579 80.3395 58.2315 80.1383 58.6219 79.8188C59.0124 79.4993 59.3033 79.0749 59.4605 78.5955L56.0582 63.6252L48.3035 55.0723L48.437 42.9129L57.2569 53.3319C58.4948 54.1563 60.073 54.0751 61.0649 53.1984C62.1903 52.2012 62.0201 50.6623 62.0018 50.5236L48.5705 35.344C47.6414 34.2055 46.16 33.8601 45.0948 34.4254C44.0872 34.9645 43.8569 36.1213 43.8255 36.2966C43.4905 43.4921 43.1564 50.6868 42.8231 57.8805Z" fill="white" stroke="#4540DB" stroke-width="1.83202" stroke-linecap="round" stroke-linejoin="round"/>
<path d="M43.3257 57.1111L50.0859 63.6697" stroke="#4540DB" stroke-width="1.83202" stroke-linecap="round" stroke-linejoin="round"/>
</g>
<path d="M62 53.9404L81.355 72.497L62 53.9404Z" fill="white"/>
<path d="M62 53.9404L81.355 72.497" stroke="#4540DB" stroke-width="1.83202" stroke-linecap="round" stroke-linejoin="round"/>
<defs>
<clipPath id="clip0_2_1431">
<rect width="33" height="63.6576" fill="white" transform="translate(37 18)"/>
</clipPath>
</defs>
</svg>
