<svg width="107" height="100" viewBox="0 0 107 100" fill="none" xmlns="http://www.w3.org/2000/svg">
<rect x="0.5" width="106" height="100" rx="50" fill="#F7F8FE"/>
<g clip-path="url(#clip0_2_1349)">
<path d="M50.5369 27.5763V34.3541C49.3569 34.3652 48.2278 34.8365 47.3902 35.6678C46.5526 36.499 46.0726 37.6245 46.0525 38.8044C46.0325 39.9843 46.4739 41.1254 47.2827 41.9847C48.0916 42.844 49.2039 43.3535 50.3829 43.4047C50.4201 45.6134 50.4588 47.8213 50.499 50.0285L45.3754 50.1066C45.9759 51.5064 45.7616 53.0446 44.8374 53.9956C44.7347 54.1006 43.6943 55.1342 42.3325 54.8886C40.9707 54.6431 40.196 53.2612 40.0643 52.1471C39.9885 51.4396 40.1361 50.7261 40.4862 50.1066L35.289 50.0665L35.2488 43.3288C37.162 43.1725 38.794 42.0406 39.4481 40.402C39.8603 39.3211 39.8459 38.1239 39.4079 37.0532C38.7248 35.4481 37.0973 34.3742 35.2108 34.2403L35.1707 27.5763L40.2541 27.5383C40.0461 27.1087 39.9285 26.6409 39.9085 26.164C39.8885 25.687 39.9666 25.2111 40.138 24.7655C40.2139 24.5825 40.8836 23.0153 42.4866 22.8009C43.1017 22.7313 43.7233 22.8521 44.2675 23.1472C44.8117 23.4423 45.2522 23.8973 45.5294 24.4508C46.2974 25.9756 45.3843 27.4557 45.3375 27.5316L50.5369 27.5763Z" fill="#BEBCFA" stroke="#4540DB" stroke-width="1.56275" stroke-miterlimit="10"/>
<path d="M76.4184 46.5325H69.6383C69.6178 45.359 69.1424 44.2393 68.3122 43.4095C67.4821 42.5797 66.3621 42.1048 65.1886 42.0848C64.015 42.0648 62.8796 42.5014 62.0217 43.3024C61.1637 44.1034 60.6505 45.2063 60.59 46.3785L53.9662 46.4946C53.9394 44.7875 53.9134 43.0796 53.8881 41.371C52.4883 41.9716 50.9501 41.7572 49.999 40.833C49.8941 40.7303 48.8582 39.6899 49.106 38.3281C49.3538 36.9663 50.7246 36.1916 51.8409 36.0577C52.5484 35.9819 53.2619 36.1294 53.8814 36.4796C53.8948 34.7472 53.9074 33.0148 53.9193 31.2823L60.6592 31.2422C60.8155 33.1554 61.9474 34.7874 63.586 35.4415C64.6669 35.8539 65.8641 35.8395 66.9348 35.4013C68.5399 34.7182 69.6138 33.0907 69.7455 31.2042L76.4095 31.1663C76.4199 32.8615 76.4326 34.5559 76.4475 36.2497C76.8771 36.0416 77.3448 35.9239 77.8218 35.9039C78.2987 35.8839 78.7747 35.9621 79.2202 36.1336C79.4033 36.2095 80.9683 36.8792 81.1848 38.4822C81.2539 39.098 81.1321 39.7202 80.8358 40.2645C80.5395 40.8088 80.083 41.2488 79.5283 41.5251C78.0035 42.293 76.5211 41.3799 76.4475 41.3331C76.44 43.0655 76.4303 44.7986 76.4184 46.5325Z" stroke="#4540DB" stroke-width="1.56275" stroke-miterlimit="10"/>
<path d="M57.4624 72.4497V65.6785C58.636 65.658 59.7557 65.1825 60.5855 64.3524C61.4152 63.5223 61.8902 62.4023 61.9102 61.2287C61.9301 60.0552 61.4936 58.9197 60.6925 58.0618C59.8915 57.2039 58.7886 56.6906 57.6164 56.6302C57.5777 54.42 57.5391 52.2113 57.5004 50.0041L62.6217 49.9282C62.0212 48.5284 62.2355 46.9902 63.162 46.0392C63.2624 45.9343 64.3028 44.8984 65.6646 45.1462C67.0264 45.394 67.8011 46.7759 67.9373 47.8922C68.0122 48.5999 67.8639 49.3134 67.5131 49.9327L72.7126 49.9706L72.7506 56.7105C70.8395 56.8668 69.2076 57.9987 68.5535 59.6374C68.1399 60.7178 68.1535 61.9153 68.5914 62.9861C69.2768 64.5913 70.9043 65.6651 72.7907 65.7968L72.8287 72.4608L67.7453 72.4988C67.9523 72.9287 68.0693 73.3964 68.0893 73.8732C68.1092 74.35 68.0317 74.8258 67.8614 75.2715C67.7855 75.4546 67.1135 77.0196 65.5106 77.2361C64.8943 77.3039 64.2722 77.1809 63.7281 76.8839C63.1839 76.5869 62.744 76.1301 62.4677 75.5752C61.7019 74.0504 62.6128 72.568 62.6619 72.4943L57.4624 72.4497Z" fill="#BEBCFA" stroke="#4540DB" stroke-width="1.56275" stroke-miterlimit="10"/>
<path d="M31.581 53.5024H38.3588C38.3699 54.6825 38.8413 55.8115 39.6725 56.6492C40.5038 57.4868 41.6292 57.9668 42.8091 57.9868C43.989 58.0069 45.1301 57.5655 45.9894 56.7567C46.8487 55.9478 47.3582 54.8355 47.4094 53.6565L54.0332 53.5404C54.06 55.2475 54.086 56.9546 54.1113 58.6617C55.5111 58.0612 57.0493 58.2755 58.0004 59.202C58.1053 59.3025 59.1389 60.3428 58.8934 61.7046C58.6478 63.0665 57.2726 63.8411 56.1585 63.9773C55.4508 64.0526 54.7372 63.9042 54.118 63.5531L54.0779 68.7526L47.3402 68.7906C47.1839 66.8796 46.052 65.2476 44.4134 64.5935C43.3329 64.1802 42.1355 64.1937 41.0646 64.6314C39.4595 65.3168 38.3856 66.9443 38.2517 68.8308L31.581 68.8777C31.5676 67.1824 31.5549 65.488 31.543 63.7943C31.113 64.0011 30.6452 64.1179 30.1684 64.1375C29.6916 64.1571 29.2158 64.079 28.7703 63.9081C28.5872 63.8344 27.02 63.1625 26.8057 61.5595C26.7344 60.943 26.8545 60.3195 27.1496 59.7736C27.4447 59.2277 27.9006 58.7857 28.4555 58.5077C29.9803 57.742 31.4604 58.6528 31.5363 58.7019C31.5542 56.968 31.5691 55.2349 31.581 53.5024Z" stroke="#4540DB" stroke-width="1.56275" stroke-miterlimit="10"/>
</g>
<g clip-path="url(#clip1_2_1349)">
<path d="M50.5369 27.5763V34.3541C49.3569 34.3652 48.2278 34.8365 47.3902 35.6678C46.5526 36.499 46.0726 37.6245 46.0525 38.8044C46.0325 39.9843 46.4739 41.1254 47.2827 41.9847C48.0916 42.844 49.2039 43.3535 50.3829 43.4047C50.4201 45.6134 50.4588 47.8213 50.499 50.0285L45.3754 50.1066C45.9759 51.5064 45.7616 53.0446 44.8374 53.9956C44.7347 54.1006 43.6943 55.1342 42.3325 54.8886C40.9707 54.6431 40.196 53.2612 40.0643 52.1471C39.9885 51.4396 40.1361 50.7261 40.4862 50.1066L35.289 50.0665L35.2488 43.3288C37.162 43.1725 38.794 42.0406 39.4481 40.402C39.8603 39.3211 39.8459 38.1239 39.4079 37.0532C38.7248 35.4481 37.0973 34.3742 35.2108 34.2403L35.1707 27.5763L40.2541 27.5383C40.0461 27.1087 39.9285 26.6409 39.9085 26.164C39.8885 25.687 39.9666 25.2111 40.138 24.7655C40.2139 24.5825 40.8836 23.0153 42.4866 22.8009C43.1017 22.7313 43.7233 22.8521 44.2675 23.1472C44.8117 23.4423 45.2522 23.8973 45.5294 24.4508C46.2974 25.9756 45.3843 27.4557 45.3375 27.5316L50.5369 27.5763Z" fill="#BEBCFA" stroke="#4540DB" stroke-width="1.56275" stroke-miterlimit="10"/>
<path d="M76.4184 46.5325H69.6383C69.6178 45.359 69.1424 44.2393 68.3122 43.4095C67.4821 42.5797 66.3621 42.1048 65.1886 42.0848C64.015 42.0648 62.8796 42.5014 62.0217 43.3024C61.1637 44.1034 60.6505 45.2063 60.59 46.3785L53.9662 46.4946C53.9394 44.7875 53.9134 43.0796 53.8881 41.371C52.4883 41.9716 50.9501 41.7572 49.999 40.833C49.8941 40.7303 48.8582 39.6899 49.106 38.3281C49.3538 36.9663 50.7246 36.1916 51.8409 36.0577C52.5484 35.9819 53.2619 36.1294 53.8814 36.4796C53.8948 34.7472 53.9074 33.0148 53.9193 31.2823L60.6592 31.2422C60.8155 33.1554 61.9474 34.7874 63.586 35.4415C64.6669 35.8539 65.8641 35.8395 66.9348 35.4013C68.5399 34.7182 69.6138 33.0907 69.7455 31.2042L76.4095 31.1663C76.4199 32.8615 76.4326 34.5559 76.4475 36.2497C76.8771 36.0416 77.3448 35.9239 77.8218 35.9039C78.2987 35.8839 78.7747 35.9621 79.2202 36.1336C79.4033 36.2095 80.9683 36.8792 81.1848 38.4822C81.2539 39.098 81.1321 39.7202 80.8358 40.2645C80.5395 40.8088 80.083 41.2488 79.5283 41.5251C78.0035 42.293 76.5211 41.3799 76.4475 41.3331C76.44 43.0655 76.4303 44.7986 76.4184 46.5325Z" stroke="#4540DB" stroke-width="1.56275" stroke-miterlimit="10"/>
<path d="M57.4624 72.4497V65.6785C58.636 65.658 59.7557 65.1825 60.5855 64.3524C61.4152 63.5223 61.8902 62.4023 61.9102 61.2287C61.9301 60.0552 61.4936 58.9197 60.6925 58.0618C59.8915 57.2039 58.7886 56.6906 57.6164 56.6302C57.5777 54.42 57.5391 52.2113 57.5004 50.0041L62.6217 49.9282C62.0212 48.5284 62.2355 46.9902 63.162 46.0392C63.2624 45.9343 64.3028 44.8984 65.6646 45.1462C67.0264 45.394 67.8011 46.7759 67.9373 47.8922C68.0122 48.5999 67.8639 49.3134 67.5131 49.9327L72.7126 49.9706L72.7506 56.7105C70.8395 56.8668 69.2076 57.9987 68.5535 59.6374C68.1399 60.7178 68.1535 61.9153 68.5914 62.9861C69.2768 64.5913 70.9043 65.6651 72.7907 65.7968L72.8287 72.4608L67.7453 72.4988C67.9523 72.9287 68.0693 73.3964 68.0893 73.8732C68.1092 74.35 68.0317 74.8258 67.8614 75.2715C67.7855 75.4546 67.1135 77.0196 65.5106 77.2361C64.8943 77.3039 64.2722 77.1809 63.7281 76.8839C63.1839 76.5869 62.744 76.1301 62.4677 75.5752C61.7019 74.0504 62.6128 72.568 62.6619 72.4943L57.4624 72.4497Z" fill="#BEBCFA" stroke="#4540DB" stroke-width="1.56275" stroke-miterlimit="10"/>
<path d="M31.581 53.5024H38.3588C38.3699 54.6825 38.8413 55.8115 39.6725 56.6492C40.5038 57.4868 41.6292 57.9668 42.8091 57.9868C43.989 58.0069 45.1301 57.5655 45.9894 56.7567C46.8487 55.9478 47.3582 54.8355 47.4094 53.6565L54.0332 53.5404C54.06 55.2475 54.086 56.9546 54.1113 58.6617C55.5111 58.0612 57.0493 58.2755 58.0004 59.202C58.1053 59.3025 59.1389 60.3428 58.8934 61.7046C58.6478 63.0665 57.2726 63.8411 56.1585 63.9773C55.4508 64.0526 54.7372 63.9042 54.118 63.5531L54.0779 68.7526L47.3402 68.7906C47.1839 66.8796 46.052 65.2476 44.4134 64.5935C43.3329 64.1802 42.1355 64.1937 41.0646 64.6314C39.4595 65.3168 38.3856 66.9443 38.2517 68.8308L31.581 68.8777C31.5676 67.1824 31.5549 65.488 31.543 63.7943C31.113 64.0011 30.6452 64.1179 30.1684 64.1375C29.6916 64.1571 29.2158 64.079 28.7703 63.9081C28.5872 63.8344 27.02 63.1625 26.8057 61.5595C26.7344 60.943 26.8545 60.3195 27.1496 59.7736C27.4447 59.2277 27.9006 58.7857 28.4555 58.5077C29.9803 57.742 31.4604 58.6528 31.5363 58.7019C31.5542 56.968 31.5691 55.2349 31.581 53.5024Z" stroke="#4540DB" stroke-width="1.56275" stroke-miterlimit="10"/>
</g>
<defs>
<clipPath id="clip0_2_1349">
<rect width="56" height="56.0447" fill="white" transform="translate(26 21.9954)"/>
</clipPath>
<clipPath id="clip1_2_1349">
<rect width="56" height="56.0447" fill="white" transform="translate(26 21.9954)"/>
</clipPath>
</defs>
</svg>
