<svg width="107" height="100" viewBox="0 0 107 100" fill="none" xmlns="http://www.w3.org/2000/svg">
<rect x="0.5" width="106" height="100" rx="50" fill="#F7F8FE"/>
<g clip-path="url(#clip0_2_1401)">
<path d="M47.0204 77.7386C53.7465 77.7386 59.199 72.286 59.199 65.56C59.199 58.8339 53.7465 53.3813 47.0204 53.3813C40.2943 53.3813 34.8418 58.8339 34.8418 65.56C34.8418 72.286 40.2943 77.7386 47.0204 77.7386Z" fill="#BEBCFA" stroke="#4540DB" stroke-width="1.68279" stroke-miterlimit="10"/>
<path d="M53.2661 51.3908C53.3037 52.4788 53.4405 53.561 53.6747 54.6242C53.7493 54.9631 53.8334 55.2901 53.9151 55.605L64.923 55.5641C65.7224 55.6481 66.4921 55.9137 67.1731 56.3406C68.4929 57.1892 69.0963 58.4802 69.4641 59.4514C70.4257 61.901 71.8104 66.8821 73.1471 73.445C73.1969 74.1804 73.0345 74.9146 72.679 75.5602C72.3236 76.2059 71.7901 76.7359 71.1421 77.087C70.3631 77.4687 69.4789 77.5794 68.6298 77.4018C67.7806 77.2241 67.0151 76.7682 66.4543 76.1062C65.294 72.1236 64.1345 68.141 62.9758 64.1584C62.9158 63.9429 62.8035 63.7455 62.6488 63.5838C62.1007 63.0237 61.2521 63.1992 61.1752 63.216L50.8116 63.2953C49.8705 63.0836 49.0061 62.616 48.3138 61.9443C47.4225 61.0569 46.8719 59.8842 46.7585 58.6316L43.2823 42.4287C43.1964 41.9394 43.2078 41.4379 43.3157 40.953C43.4236 40.468 43.626 40.0091 43.9113 39.6024C44.1966 39.1957 44.5592 38.8491 44.9784 38.5825C45.3976 38.3159 45.8652 38.1345 46.3546 38.0486C46.8439 37.9628 47.3454 37.9741 47.8303 38.082C48.3152 38.19 48.7742 38.3924 49.1809 38.6776C49.5876 38.9629 49.9342 39.3255 50.2008 39.7448C50.4674 40.164 50.6488 40.6316 50.7347 41.1209C51.1177 42.5249 51.4975 43.9296 51.8741 45.3351H60.0477C60.656 45.5223 61.1942 45.8876 61.5928 46.3837C61.9914 46.8798 62.2321 47.4841 62.2839 48.1184C62.3357 48.7527 62.1961 49.388 61.8832 49.9421C61.5702 50.4963 61.0984 50.944 60.5285 51.2273L53.2661 51.3908Z" fill="white" stroke="#4540DB" stroke-width="1.68279" stroke-miterlimit="10"/>
<path d="M48.4963 47.2413C48.3607 47.9303 48.4309 48.6439 48.698 49.2933C48.9652 49.9426 49.4176 50.499 49.9988 50.893C51.4268 51.8402 53.023 51.3738 53.2225 51.3089" stroke="#4540DB" stroke-width="1.68279" stroke-linecap="round" stroke-linejoin="round"/>
<path d="M37.6353 36.5773C39.0584 42.225 40.4912 47.872 41.9336 53.5182" stroke="#4540DB" stroke-width="1.68279" stroke-linecap="round" stroke-linejoin="round"/>
<path d="M47.8499 34.082C50.9686 34.082 53.4968 31.5538 53.4968 28.4351C53.4968 25.3163 50.9686 22.7881 47.8499 22.7881C44.7311 22.7881 42.2029 25.3163 42.2029 28.4351C42.2029 31.5538 44.7311 34.082 47.8499 34.082Z" fill="white" stroke="#4540DB" stroke-width="1.68279" stroke-miterlimit="10"/>
</g>
<defs>
<clipPath id="clip0_2_1401">
<rect width="40" height="56.6332" fill="white" transform="translate(34 21.9468)"/>
</clipPath>
</defs>
</svg>
