<svg width="107" height="100" viewBox="0 0 107 100" fill="none" xmlns="http://www.w3.org/2000/svg">
<rect x="0.5" width="106" height="100" rx="50" fill="#F7F8FE"/>
<g clip-path="url(#clip0_2_1415)">
<path d="M55.5171 64.0972L61.8089 64.0182V59.9101C62.4629 60.2166 63.1919 60.3264 63.9071 60.2261C65.7368 59.9543 66.628 58.3301 66.7323 58.1278L66.8934 38.9241C66.6692 37.4082 66.0256 35.9853 65.0353 34.816C63.7845 33.3716 62.0753 32.401 60.1941 32.0667L47.3673 31.9087C45.4277 32.3997 43.6831 33.4687 42.3649 34.974C41.346 36.1568 40.6253 37.5666 40.2635 39.0852L40.1055 57.1577C40.1278 57.7117 40.3064 58.2482 40.6206 58.705C40.9349 59.1619 41.372 59.5205 41.8814 59.7395C42.3141 59.904 42.7785 59.9679 43.2395 59.9263C43.7005 59.8847 44.146 59.7386 44.5422 59.4993C44.6244 67.2162 44.7055 74.9352 44.7855 82.6563C44.859 83.5286 45.2382 84.3469 45.8563 84.9667C46.4744 85.5865 47.2916 85.968 48.1637 86.0439C48.8944 86.0682 49.6157 85.8736 50.235 85.4851C50.8544 85.0966 51.3435 84.5319 51.6397 83.8635L51.4786 62.1601C51.4786 61.4238 52.316 60.7254 53.2135 60.6274C54.1109 60.5295 54.9831 61.0572 55.3528 62.2422C55.536 62.8424 55.5919 63.4742 55.5171 64.0972Z" fill="white" stroke="#4540DB" stroke-width="2.21205" stroke-linecap="round" stroke-linejoin="round"/>
<path d="M44.9469 43.4427C44.9469 49.1593 44.6309 54.8727 44.6309 60.5893" stroke="#4540DB" stroke-width="2.21205" stroke-linecap="round" stroke-linejoin="round"/>
<path d="M61.8091 59.5782V43.4618" stroke="#4540DB" stroke-width="2.21205" stroke-linecap="round" stroke-linejoin="round"/>
<path d="M55.571 64.2332C55.571 66.4642 55.5795 68.6962 55.5963 70.9294L61.809 70.8756C61.7016 68.6952 61.9102 66.5179 61.809 64.3406C59.8308 64.3027 57.5429 64.2679 55.571 64.2332Z" fill="#BEBCFA" stroke="#4540DB" stroke-width="2.21205" stroke-linecap="round" stroke-linejoin="round"/>
<path d="M58.3803 71.198V86.1262H55.6785H61.4362" stroke="#4540DB" stroke-width="2.21205" stroke-linecap="round" stroke-linejoin="round"/>
<path d="M53.9848 27.952C58.0844 27.952 61.4078 24.6286 61.4078 20.529C61.4078 16.4294 58.0844 13.106 53.9848 13.106C49.8852 13.106 46.5618 16.4294 46.5618 20.529C46.5618 24.6286 49.8852 27.952 53.9848 27.952Z" fill="white" stroke="#4540DB" stroke-width="2.21205" stroke-miterlimit="10"/>
</g>
<defs>
<clipPath id="clip0_2_1415">
<rect width="29" height="75.2319" fill="white" transform="translate(39 12)"/>
</clipPath>
</defs>
</svg>
