<svg width="43" height="45" viewBox="0 0 43 45" fill="none" xmlns="http://www.w3.org/2000/svg">
<path d="M30.7543 0.0646126C31.0726 0.169067 31.3358 0.394204 31.4862 0.690506C31.6365 0.986808 31.6617 1.33001 31.556 1.64463L30.2915 5.39466C30.1855 5.70961 29.9573 5.97004 29.6571 6.11866C29.3569 6.26729 29.0092 6.29193 28.6906 6.18716C28.372 6.0824 28.1086 5.85682 27.9582 5.56004C27.8079 5.26326 27.7829 4.9196 27.8889 4.60465L29.1534 0.854619C29.206 0.698785 29.2891 0.55472 29.398 0.430662C29.507 0.306603 29.6396 0.204984 29.7882 0.131614C29.9369 0.0582437 30.0988 0.0145618 30.2645 0.0030652C30.4303 -0.0084314 30.5967 0.012483 30.7543 0.0646126V0.0646126ZM40.1042 4.63465C40.2218 4.51843 40.3151 4.38046 40.3787 4.22861C40.4423 4.07676 40.4751 3.91401 40.4751 3.74964C40.4751 3.58528 40.4423 3.42253 40.3787 3.27068C40.3151 3.11883 40.2218 2.98086 40.1042 2.86464C39.9867 2.74842 39.8471 2.65622 39.6935 2.59333C39.5399 2.53043 39.3752 2.49805 39.209 2.49805C39.0427 2.49805 38.878 2.53043 38.7244 2.59333C38.5708 2.65622 38.4312 2.74842 38.3137 2.86464L33.2556 7.86468C33.138 7.98074 33.0447 8.11855 32.981 8.27025C32.9173 8.42194 32.8845 8.58456 32.8844 8.7488C32.8841 9.08051 33.0172 9.39873 33.2543 9.63344C33.4914 9.86816 33.8131 10.0002 34.1487 10.0004C34.4842 10.0006 34.8062 9.86908 35.0436 9.63469L40.1017 4.63465H40.1042ZM14.1865 5.36216C14.5396 4.62791 15.0684 3.98984 15.7272 3.50322C16.386 3.0166 17.1549 2.69612 17.9673 2.56954C18.7797 2.44296 19.611 2.51411 20.3893 2.77681C21.1676 3.03951 21.8693 3.48585 22.4337 4.07715L39.0926 21.5273C39.6485 22.1095 40.0549 22.8152 40.2775 23.585C40.5001 24.3547 40.5325 25.1661 40.3719 25.9508C40.2113 26.7355 39.8624 27.4706 39.3546 28.0943C38.8468 28.718 38.1949 29.212 37.4538 29.5349L27.4969 33.8749C27.866 35.1761 27.9255 36.5442 27.6708 37.8719C27.4161 39.1997 26.8541 40.4512 26.0288 41.5286C25.2034 42.6059 24.1371 43.4799 22.9132 44.0821C21.6894 44.6843 20.3411 44.9985 18.974 45C17.4672 45.0008 15.9852 44.6212 14.6685 43.8971C13.3518 43.173 12.244 42.1284 11.4501 40.8625L8.41521 42.1825C7.71803 42.4864 6.94443 42.5757 6.19516 42.4388C5.4459 42.3019 4.7557 41.9451 4.21446 41.415L1.12396 38.3874C0.565132 37.8403 0.192175 37.1349 0.0566986 36.369C-0.0787773 35.6031 0.029928 34.8146 0.367771 34.1124L14.1865 5.36466V5.36216ZM13.797 39.8375C14.6364 41.022 15.8654 41.8821 17.2745 42.2712C18.6835 42.6603 20.1855 42.5543 21.5244 41.9713C22.8633 41.3883 23.9562 40.3643 24.6168 39.074C25.2775 37.7836 25.465 36.3067 25.1474 34.8949L13.797 39.8375V39.8375ZM20.5951 5.79216C20.3127 5.49687 19.9618 5.27407 19.5726 5.14307C19.1835 5.01207 18.768 4.9768 18.3619 5.04033C17.9559 5.10386 17.5717 5.26426 17.2425 5.50766C16.9133 5.75105 16.6491 6.0701 16.4728 6.43717L2.6515 35.1874C2.53958 35.4212 2.50379 35.6836 2.54909 35.9384C2.59439 36.1932 2.71853 36.4278 2.90441 36.6099L5.99491 39.635C6.175 39.8116 6.40467 39.9306 6.65409 39.9766C6.90351 40.0225 7.16113 39.9932 7.39348 39.8925L36.4321 27.2498C36.8026 27.0886 37.1286 26.8418 37.3826 26.5302C37.6366 26.2186 37.8112 25.8512 37.8917 25.459C37.9723 25.0668 37.9564 24.6612 37.8454 24.2764C37.7344 23.8915 37.5316 23.5386 37.254 23.2473L20.5951 5.79716V5.79216ZM37.9419 12.4997C37.6065 12.4997 37.2849 12.6314 37.0477 12.8658C36.8106 13.1003 36.6774 13.4182 36.6774 13.7497C36.6774 14.0813 36.8106 14.3992 37.0477 14.6336C37.2849 14.868 37.6065 14.9997 37.9419 14.9997H41.7355C42.0708 14.9997 42.3925 14.868 42.6296 14.6336C42.8668 14.3992 43 14.0813 43 13.7497C43 13.4182 42.8668 13.1003 42.6296 12.8658C42.3925 12.6314 42.0708 12.4997 41.7355 12.4997H37.9419Z" fill="#FF9191"/>
</svg>
