<svg width="64" height="64" viewBox="0 0 64 64" fill="none" xmlns="http://www.w3.org/2000/svg">
<rect width="64" height="64" rx="32" fill="#F7F8FE"/>
<path d="M47.3598 18.5603H16.6398C15.9609 18.5603 15.3097 18.83 14.8296 19.3101C14.3495 19.7902 14.0798 20.4413 14.0798 21.1203V41.6003C14.0798 42.2793 14.3495 42.9304 14.8296 43.4105C15.3097 43.8906 15.9609 44.1603 16.6398 44.1603H47.3598C48.0388 44.1603 48.6899 43.8906 49.17 43.4105C49.6501 42.9304 49.9198 42.2793 49.9198 41.6003V21.1203C49.9198 20.4413 49.6501 19.7902 49.17 19.3101C48.6899 18.83 48.0388 18.5603 47.3598 18.5603V18.5603ZM44.5438 21.1203L31.9998 29.7987L19.4558 21.1203H44.5438ZM16.6398 41.6003V22.2851L31.2702 32.4099C31.4845 32.5585 31.7391 32.6382 31.9998 32.6382C32.2606 32.6382 32.5152 32.5585 32.7294 32.4099L47.3598 22.2851V41.6003H16.6398Z" fill="#4540DB"/>
</svg>
