<svg width="101" height="100" viewBox="0 0 101 100" fill="none" xmlns="http://www.w3.org/2000/svg">
<rect x="0.5" width="100" height="100" rx="50" fill="#F7F8FE"/>
<path d="M50.4992 48.5C56.4692 48.5 61.3089 43.37 61.3089 37.0417C61.3089 30.7134 56.4692 25.5834 50.4992 25.5834C44.5291 25.5834 39.6894 30.7134 39.6894 37.0417C39.6894 43.37 44.5291 48.5 50.4992 48.5Z" stroke="#4540DB" stroke-width="5"/>
<path d="M61.3093 71.4167H35.941C35.3279 71.4169 34.7217 71.2788 34.1627 71.0116C33.6037 70.7444 33.1048 70.3543 32.6989 69.8671C32.2931 69.3799 31.9896 68.8067 31.8087 68.1857C31.6278 67.5647 31.5735 66.91 31.6496 66.265L32.4927 59.1059C32.6888 57.4426 33.4514 55.9126 34.637 54.8035C35.8227 53.6945 37.3497 53.0827 38.931 53.0834H39.6898" stroke="#4540DB" stroke-width="5" stroke-linecap="round" stroke-linejoin="round"/>
<path d="M59.1474 57.6667L64.0118 62.25L72.1191 53.0834" stroke="#4540DB" stroke-width="5" stroke-linecap="round" stroke-linejoin="round"/>
</svg>
