<svg width="101" height="100" viewBox="0 0 101 100" fill="none" xmlns="http://www.w3.org/2000/svg">
<rect x="0.5" width="100" height="100" rx="50" fill="#F7F8FE"/>
<path d="M62.0959 74.0833V69.1666H69.0534V61.7916H73.6918V70.3958C73.6918 71.3545 73.3207 72.215 72.625 72.9525C71.9292 73.69 71.1175 74.0833 70.213 74.0833H62.0959ZM38.904 74.0833H30.7869C29.8824 74.0833 29.0707 73.69 28.3749 72.9525C27.6792 72.215 27.3081 71.3545 27.3081 70.3958V61.7916H31.9465V69.1666H38.904V74.0833ZM62.0959 24.9166H70.213C71.1175 24.9166 71.9292 25.31 72.625 26.0475C73.3207 26.785 73.6918 27.6454 73.6918 28.6041V37.2083H69.0534V29.8333H62.0959V24.9166ZM38.904 24.9166V29.8333H31.9465V37.2083H27.3081V28.6041C27.3081 27.6454 27.6792 26.785 28.3749 26.0475C29.0707 25.31 29.8824 24.9166 30.7869 24.9166H38.904ZM47.0212 34.75C52.8191 34.75 57.4575 39.6666 57.4575 45.8125C57.4575 47.9758 56.8777 49.9916 55.8573 51.7125L63.4178 59.7266L60.1477 63.1929L52.5872 55.1787C50.9638 56.2604 49.062 56.875 47.0212 56.875C41.2232 56.875 36.5848 51.9583 36.5848 45.8125C36.5848 39.6666 41.2232 34.75 47.0212 34.75ZM47.0212 39.6666C45.4834 39.6666 44.0087 40.3141 42.9214 41.4667C41.8341 42.6193 41.2232 44.1825 41.2232 45.8125C41.2232 47.4424 41.8341 49.0056 42.9214 50.1582C44.0087 51.3108 45.4834 51.9583 47.0212 51.9583C48.5589 51.9583 50.0336 51.3108 51.1209 50.1582C52.2083 49.0056 52.8191 47.4424 52.8191 45.8125C52.8191 44.1825 52.2083 42.6193 51.1209 41.4667C50.0336 40.3141 48.5589 39.6666 47.0212 39.6666Z" fill="#4540DB"/>
</svg>
