<svg width="101" height="100" viewBox="0 0 101 100" fill="none" xmlns="http://www.w3.org/2000/svg">
<rect x="0.5" width="100" height="100" rx="50" fill="#F7F8FE"/>
<path d="M61.0314 73.3333C61.6161 73.3369 62.1955 73.217 62.736 72.9807C63.2764 72.7443 63.7671 72.3962 64.1792 71.9567L70.1446 65.6333C70.5546 65.1961 70.7848 64.6048 70.7848 63.9883C70.7848 63.3719 70.5546 62.7805 70.1446 62.3433L61.3396 53.01C60.9272 52.5754 60.3693 52.3315 59.7877 52.3315C59.2062 52.3315 58.6483 52.5754 58.2358 53.01L54.7138 56.72C52.2754 56.0308 50.017 54.7621 48.1101 53.01C46.4616 50.9854 45.2652 48.5927 44.6101 46.01L48.1101 42.2767C48.52 41.8395 48.7502 41.2481 48.7502 40.6317C48.7502 40.0152 48.52 39.4238 48.1101 38.9867L39.305 29.6533C38.8926 29.2187 38.3347 28.9748 37.7531 28.9748C37.1716 28.9748 36.6137 29.2187 36.2013 29.6533L30.2579 36C29.8432 36.4369 29.5148 36.957 29.2918 37.5298C29.0688 38.1027 28.9557 38.7169 28.9591 39.3367C29.1588 48.302 32.5385 56.8583 38.4245 63.3C44.5016 69.5392 52.5736 73.1216 61.0314 73.3333ZM37.7641 34.6233L43.4654 40.6667L40.6258 43.6767C40.3568 43.9437 40.1554 44.278 40.0401 44.649C39.9247 45.02 39.899 45.4158 39.9654 45.8C40.7882 49.6975 42.5301 53.3102 45.0283 56.3C47.8467 58.9515 51.2557 60.7984 54.934 61.6667C55.291 61.7458 55.6609 61.7296 56.0105 61.6196C56.3602 61.5097 56.6786 61.3093 56.9371 61.0367L59.7767 57.9567L65.478 64L61.0755 68.6667C53.7755 68.4674 46.8102 65.3793 41.5503 60.01C36.4718 54.4322 33.5501 47.0392 33.3616 39.29L37.7641 34.6233ZM68.5818 47.6667H72.9843C73.0414 44.8923 72.5679 42.1345 71.5925 39.5593C70.6171 36.9841 69.1599 34.6449 67.3088 32.6827C65.4576 30.7205 63.2509 29.1758 60.8214 28.1419C58.392 27.108 55.7903 26.6062 53.173 26.6667V31.3333C55.2155 31.2584 57.2508 31.6297 59.1522 32.424C61.0537 33.2183 62.7806 34.4187 64.2258 35.9506C65.671 37.4825 66.8035 39.3131 67.5528 41.3286C68.3022 43.3442 68.6524 45.5015 68.5818 47.6667Z" fill="#4540DB"/>
<path d="M53.1728 40.6667C57.7955 40.6667 59.7766 42.7667 59.7766 47.6667H64.1791C64.1791 40.1533 60.2609 36 53.1728 36V40.6667Z" fill="#4540DB"/>
</svg>
