<svg width="252" height="285" viewBox="0 0 252 285" fill="none" xmlns="http://www.w3.org/2000/svg">
<path d="M60.1143 188.308C60.3083 189.28 66.9193 208.336 66.9193 208.336L67.2522 228.143C67.2957 230.741 67.6856 233.32 68.41 235.814L74.9825 261.426L87.1479 261.579C87.1479 261.579 86.2628 215.961 85.5861 208.572C84.9094 201.183 82.6157 185.49 82.6157 185.49L60.1143 188.308" fill="#9D575A"/>
<path d="M74.2961 261.145L71.063 246.152L86.7811 245.528L87.4444 262.028C87.4444 262.028 75.852 267.21 74.2961 261.145Z" fill="#E7E8E5"/>
<path d="M88.8859 261.257L88.9126 259.799C83.7831 261.607 78.7197 261.689 73.7207 260.109L73.9608 270.616L105.6 270.055C105.362 267.036 88.8859 261.257 88.8859 261.257" fill="#33535F"/>
<path d="M73.9609 270.616L73.9023 268.049L104.322 268.472C104.322 268.472 105.743 269.059 105.6 270.055L73.9609 270.616" fill="#17282F"/>
<path d="M88.9694 261.28C88.9669 261.434 88.1956 261.518 87.4445 262.028C86.6799 262.519 86.2993 263.196 86.1562 263.136C86.0132 263.109 86.2273 262.182 87.1475 261.579C88.0627 260.97 89.0004 261.138 88.9694 261.28" fill="#17282F"/>
<path d="M78.421 265.187C78.421 265.645 78.0487 266.017 77.5895 266.017C77.1311 266.017 76.7588 265.645 76.7588 265.187C76.7588 264.727 77.1311 264.355 77.5895 264.355C78.0487 264.355 78.421 264.727 78.421 265.187Z" fill="#17282F"/>
<path d="M88.7286 261.177C88.7319 261.204 88.5077 261.272 88.0861 261.348C87.6729 261.409 87.0196 261.529 86.2475 261.247C86.0576 261.177 85.8685 261.076 85.6878 260.95C85.508 260.827 85.3164 260.681 85.1767 260.441C85.0212 260.204 85.0513 259.807 85.2688 259.587C85.467 259.351 85.7907 259.249 86.0726 259.247C87.1785 259.259 88.3471 259.932 88.9226 261.082L88.5136 261.208C88.4809 260.98 88.4684 260.734 88.4835 260.487C88.5512 259.123 89.4588 257.974 90.517 257.506C90.6492 257.447 90.804 257.381 90.9955 257.385C91.1871 257.388 91.3786 257.498 91.479 257.639C91.6815 257.921 91.6949 258.232 91.6597 258.498C91.5869 259.03 91.3318 259.464 91.0574 259.795C90.4894 260.474 89.8102 260.719 89.4053 260.921C88.9804 261.109 88.7428 261.203 88.7286 261.177C88.7127 261.15 88.9276 261.004 89.3275 260.77C89.714 260.523 90.3414 260.238 90.8165 259.603C91.0516 259.291 91.2557 258.898 91.3009 258.457C91.3276 258.247 91.2875 258.016 91.1779 257.876C91.0741 257.742 90.9269 257.751 90.6885 257.869C89.7591 258.306 88.9787 259.317 88.9176 260.514C88.9051 260.73 88.9151 260.946 88.9435 261.145C88.9603 261.264 88.8791 261.375 88.7604 261.392C88.665 261.406 88.5738 261.354 88.5328 261.272C88.0501 260.278 87.0003 259.666 86.0793 259.639C85.636 259.613 85.3039 259.977 85.4854 260.275C85.6669 260.586 86.0492 260.831 86.3604 260.972C87.0246 261.258 87.6553 261.2 88.0686 261.186C88.4893 261.161 88.7236 261.147 88.7286 261.177" fill="#17282F"/>
<path d="M86.9025 247.85C86.9034 247.91 86.0468 247.993 84.6624 248.077C83.2779 248.164 81.3648 248.25 79.2526 248.321C77.1379 248.39 75.2231 248.43 73.8362 248.436C72.4492 248.443 71.5893 248.417 71.5859 248.356C71.5826 248.297 72.4367 248.214 73.8219 248.128C75.2064 248.043 77.1212 247.955 79.2376 247.886C81.3531 247.816 83.2696 247.776 84.6573 247.769C86.0443 247.763 86.9017 247.789 86.9025 247.85Z" fill="#33535F"/>
<path d="M87.2363 249.293C87.2372 249.353 86.3806 249.436 84.9962 249.521C83.6117 249.607 81.6986 249.694 79.5848 249.764C77.4717 249.834 75.557 249.873 74.17 249.88C72.7822 249.886 71.9223 249.86 71.919 249.8C71.9156 249.74 72.7705 249.657 74.155 249.572C75.5394 249.487 77.4542 249.399 79.5714 249.329C81.6869 249.259 83.6034 249.22 84.9903 249.213C86.3773 249.206 87.2355 249.232 87.2363 249.293" fill="#33535F"/>
<path d="M20.1811 264.606C19.6483 264.084 21.4702 259.405 21.4702 259.405H28.9285V264.606H20.1811Z" fill="#DADBD8"/>
<path d="M22.8255 192.142C22.8255 192.142 21.5691 202.554 22.8255 204.047C24.0811 205.539 28.6744 205.033 30.3039 204.206C31.7603 203.469 31.542 192.142 31.542 192.142L26.9043 187.353L22.8255 192.142Z" fill="#DADBD8"/>
<path d="M22.8931 259.799L24.2348 204.571H28.9285L27.5307 259.799H22.8931" fill="#DADBD8"/>
<path d="M30.5961 204.152C30.627 204.19 30.2715 204.533 29.5538 204.845C28.8411 205.156 27.7795 205.419 26.5925 205.42C25.4071 205.436 24.3289 205.184 23.6279 204.823C22.9143 204.463 22.645 204.012 22.6868 203.99C22.7412 203.94 23.0658 204.281 23.7542 204.543C24.436 204.808 25.4565 204.999 26.5891 204.985C27.7234 204.984 28.7398 204.781 29.4458 204.557C30.1535 204.333 30.5559 204.093 30.5961 204.152" fill="#17282F"/>
<path d="M29.2338 259.477C29.2338 259.597 27.4445 259.695 25.2387 259.695C23.0328 259.695 21.2451 259.597 21.2451 259.477C21.2451 259.358 23.0328 259.26 25.2387 259.26C27.4445 259.26 29.2338 259.358 29.2338 259.477Z" fill="#17282F"/>
<path d="M30.5205 264.815C30.5205 264.815 21.1483 263.806 21.6288 257.684L19.3533 258.779L2.3809 268.098C1.45367 268.714 0.418394 270.82 0.895615 271.811C1.26243 272.574 5.27155 272.346 6.08911 272.315C10.4645 272.146 26.5581 271.445 27.5029 270.215L30.2305 268.84C30.7892 268.199 30.8843 265.568 30.5205 264.815Z" fill="#33535F"/>
<path d="M0.895804 271.811L30.2308 268.84L29.4881 269.583C28.9037 270.363 26.7119 270.608 25.9668 270.769C23.7606 271.245 15.2914 272.03 3.12377 272.554C2.41588 272.584 1.29729 272.394 0.895804 271.811Z" fill="#17282F"/>
<path d="M13.9815 267.796C13.8569 267.76 14.2554 266.621 13.754 265.346C13.2901 264.056 12.2548 263.505 12.3226 263.39C12.3452 263.339 12.6465 263.394 13.047 263.669C13.4454 263.941 13.9107 264.464 14.1794 265.172C14.4437 265.88 14.4448 266.595 14.3289 267.076C14.2157 267.563 14.0307 267.817 13.9815 267.796" fill="#17282F"/>
<path d="M18.4125 266.949C18.274 266.959 18.2411 265.481 17.4793 263.912C16.7422 262.33 15.6338 261.402 15.7244 261.294C15.7752 261.188 17.0942 262.008 17.8898 263.702C18.7008 265.389 18.5246 266.972 18.4125 266.949Z" fill="#17282F"/>
<path d="M22.0622 263.399C21.9366 263.457 21.4274 262.322 20.3764 261.276C19.3408 260.214 18.2201 259.705 18.2752 259.577C18.3032 259.461 19.5846 259.806 20.7004 260.943C21.8266 262.071 22.1748 263.371 22.0622 263.399" fill="#17282F"/>
<path d="M20.7983 261.152C20.7875 261.137 21.0227 260.935 21.5194 260.683C22.0134 260.437 22.79 260.151 23.796 260.106C24.0431 260.1 24.3132 260.086 24.601 260.163C24.8744 260.22 25.2278 260.459 25.2455 260.846C25.2676 261.208 25.0319 261.541 24.7384 261.714C24.4419 261.893 24.1266 261.973 23.8059 262.057C23.156 262.211 22.4528 262.27 21.7189 262.17C21.3563 262.112 20.9497 261.976 20.6682 261.648C20.3926 261.323 20.297 260.917 20.233 260.543C19.9968 259.031 20.0322 257.584 20.3839 256.265C20.4503 256.1 20.5434 255.928 20.7127 255.806C20.8827 255.681 21.1221 255.659 21.3073 255.742C21.6734 255.926 21.8019 256.259 21.8947 256.543C22.0718 257.115 22.1141 257.679 22.0717 258.18C21.9914 259.192 21.6016 259.942 21.2824 260.392C21.12 260.619 20.9727 260.779 20.8667 260.878C20.7593 260.977 20.6994 261.024 20.6906 261.016C20.6676 260.995 20.8853 260.777 21.1689 260.318C21.4442 259.858 21.781 259.125 21.8251 258.164C21.8507 257.688 21.7958 257.161 21.6195 256.632C21.5423 256.381 21.3917 256.113 21.1896 256.026C20.9857 255.934 20.7797 256.099 20.6839 256.381C20.3852 257.571 20.3431 259.043 20.5767 260.485C20.6356 260.842 20.7286 261.185 20.9319 261.423C21.1321 261.659 21.4486 261.779 21.7743 261.832C22.4406 261.929 23.1214 261.882 23.7318 261.744C24.0374 261.671 24.3444 261.59 24.5779 261.451C24.814 261.319 24.963 261.088 24.9566 260.862C24.9521 260.643 24.7604 260.484 24.5274 260.422C24.2962 260.352 24.0425 260.353 23.8013 260.353C22.8379 260.365 22.075 260.605 21.5754 260.807C21.0724 261.015 20.8136 261.177 20.7983 261.152Z" fill="#17282F"/>
<path d="M18.1452 125.659C17.957 125.603 15.1622 140.02 14.4219 146.318C13.6807 152.615 12.0479 186.097 12.0479 186.097C12.0479 186.097 13.3453 192.208 20.198 192.394C27.0515 192.58 37.2394 193.32 37.2394 193.32L48.5391 169.98L59.0975 193.32C59.0975 193.32 76.6944 192.394 80.7699 190.727C84.8446 189.06 85.5857 188.134 85.5857 188.134C85.5857 188.134 81.3254 165.349 80.3993 159.608C79.4725 153.865 74.8014 136.531 74.8014 136.531L18.1452 125.659Z" fill="#17282F"/>
<path d="M46.7821 171.461C46.6625 171.464 46.4216 164.624 46.2443 156.187C46.0669 147.747 46.0209 140.905 46.1414 140.902C46.261 140.9 46.5019 147.738 46.6793 156.178C46.8566 164.615 46.9026 171.459 46.7821 171.461Z" fill="#33535F"/>
<path d="M39.6588 151.71C39.596 151.701 39.6596 150.926 39.76 149.676C39.8603 148.427 39.9833 146.701 40.0503 144.793C40.1163 142.882 40.1113 141.152 40.0971 139.899C40.0829 138.646 40.0737 137.868 40.1364 137.863C40.1933 137.859 40.3121 138.63 40.4041 139.886C40.4978 141.142 40.5513 142.885 40.4861 144.807C40.4192 146.729 40.2451 148.464 40.0653 149.711C39.8871 150.957 39.7148 151.718 39.6588 151.71" fill="#33535F"/>
<path d="M53.5741 150.44C53.4695 150.492 52.3 148.37 51.1072 145.634C49.9101 142.897 49.1472 140.598 49.2577 140.557C49.3731 140.512 50.3142 142.735 51.5071 145.46C52.6949 148.184 53.6845 150.385 53.5741 150.44" fill="#33535F"/>
<path d="M67.7986 15.244C67.7651 14.8006 67.5459 14.3924 67.2883 14.0294C66.4484 12.8474 65.1402 12.0075 63.7147 11.7373C64.9026 11.1342 66.1005 10.4742 66.9721 9.46702C67.8429 8.45902 68.3356 7.02357 67.8973 5.76545C67.4665 4.52574 66.2569 3.7252 65.0356 3.24504C63.3383 2.57751 61.4244 2.35666 59.6786 2.88115C57.9319 3.40481 56.3902 4.73905 55.854 6.48235L57.5672 10.8724C57.7872 12.6006 58.4823 14.2653 59.5539 15.638C60.0449 16.2662 60.7635 16.8844 61.5432 16.7196C62.2065 16.5799 62.6381 15.8898 62.7025 15.2139C62.7678 14.5388 62.5461 13.8729 62.3278 13.2305C63.1961 14.4811 64.3806 15.51 65.7408 16.1951C66.2117 16.4318 66.7839 16.6259 67.2507 16.3783C67.643 16.1692 67.8329 15.6873 67.7986 15.244" fill="#17282F"/>
<path d="M68.4611 6.21298C68.441 6.2548 67.8555 5.9319 66.8291 5.65919C65.811 5.38231 64.3212 5.20916 62.7402 5.5446C61.1592 5.88088 59.8684 6.64628 59.0512 7.31298C58.2255 7.97885 57.8215 8.51254 57.7863 8.48243C57.7738 8.47239 57.8608 8.33019 58.0482 8.09346C58.2347 7.85589 58.5292 7.53132 58.9357 7.17413C59.7388 6.45891 61.0554 5.64248 62.6875 5.29449C64.3187 4.94817 65.8537 5.15895 66.8793 5.48519C67.3954 5.64664 67.7969 5.82316 68.0637 5.96453C68.3306 6.10507 68.4686 6.19876 68.4611 6.21298" fill="#33535F"/>
<path d="M58.0362 10.4315C58.1048 10.0852 58.0429 9.72719 57.981 9.3792C57.7334 7.9839 57.439 6.49657 56.4452 5.4869C56.2695 5.30873 56.0445 5.13893 55.7961 5.16821C55.4021 5.21338 55.2373 5.71612 55.3009 6.10761C55.3636 6.4991 55.561 6.87552 55.5267 7.27036L56.1926 10.0919C56.2302 10.4014 56.3381 10.7118 56.5523 10.9385C56.7664 11.1652 57.0993 11.2932 57.4005 11.2112C57.7409 11.1167 57.9685 10.7787 58.0362 10.4315" fill="#33535F"/>
<path d="M55.4562 30.2242C56.5655 27.1316 57.6613 24.0147 58.2209 20.7783C58.7797 17.541 58.783 14.1489 57.7307 11.0371C57.5709 10.5653 56.1848 7.39073 55.6888 7.42503C55.3341 7.44928 56.1572 10.3963 55.969 10.6983C54.173 13.5818 53.6042 17.0968 53.7757 20.4897C53.9471 23.8826 54.5603 26.9476 55.4562 30.2242" fill="#17282F"/>
<path d="M54.9695 46.2803L56.154 17.7058C56.6668 9.48291 52.3094 2.33072 44.0748 2.04547L43.1805 2.06638C35.5808 2.24623 29.3939 8.23148 28.9623 15.8203C28.5532 22.9842 28.1927 30.9395 28.3316 34.7799C28.616 42.6799 36.5503 43.7214 36.5503 43.7214C36.5679 43.7222 36.5403 45.5534 36.4943 47.8739C36.4943 47.8739 37.0447 52.3751 44.4077 52.5901C51.774 52.8043 54.9695 46.2803 54.9695 46.2803" fill="#9D575A"/>
<path d="M36.5499 43.7213C36.5499 43.7213 41.5389 43.8953 46.7688 40.4355C46.7688 40.4355 44.3964 46.2426 36.4922 45.7181L36.5499 43.7213" fill="#773C3E"/>
<path d="M33.5635 22.6872C33.5577 23.2845 34.0562 23.7822 34.6794 23.8006C35.3018 23.819 35.8121 23.3523 35.8188 22.7558C35.8263 22.1594 35.3269 21.66 34.7045 21.6416C34.0821 21.6232 33.5711 22.0916 33.5635 22.6872Z" fill="#17282F"/>
<path d="M30.7215 18.7666C30.8646 18.9104 31.7044 18.2571 32.9199 18.2312C34.132 18.1885 35.0388 18.7925 35.1667 18.6402C35.2303 18.5733 35.0814 18.3107 34.6858 18.0371C34.2968 17.7653 33.6393 17.5068 32.8831 17.5277C32.1269 17.5503 31.497 17.8439 31.1373 18.1375C30.7717 18.4328 30.6504 18.7021 30.7215 18.7666" fill="#17282F"/>
<path d="M44.2467 22.6881C44.2391 23.2845 44.7394 23.7822 45.3617 23.8006C45.9833 23.819 46.4944 23.3523 46.501 22.7558C46.5077 22.1594 46.0084 21.6608 45.3868 21.6416C44.7636 21.6232 44.2534 22.0916 44.2467 22.6881" fill="#17282F"/>
<path d="M42.6289 19.1904C42.7728 19.3343 43.6143 18.681 44.8273 18.6551C46.041 18.6124 46.947 19.2164 47.075 19.0641C47.1377 18.9964 46.9905 18.7345 46.5948 18.461C46.2058 18.1891 45.5483 17.9307 44.7913 17.9516C44.0351 17.9742 43.4052 18.2678 43.0455 18.5614C42.6799 18.8567 42.5586 19.126 42.6289 19.1904" fill="#17282F"/>
<path d="M38.4942 28.8355C38.4984 28.7661 37.7405 28.6531 36.5133 28.526C36.203 28.5017 35.9069 28.4465 35.85 28.2366C35.7714 28.014 35.8943 27.6769 36.0357 27.3122C36.3092 26.5552 36.5953 25.7605 36.8965 24.929C38.0902 21.5361 38.9468 18.7496 38.8096 18.7028C38.6724 18.656 37.5933 21.3671 36.3996 24.76C36.1127 25.5965 35.8383 26.3937 35.5781 27.1566C35.4686 27.5121 35.2761 27.9162 35.4451 28.3779C35.5346 28.608 35.7663 28.7703 35.9663 28.8196C36.167 28.8748 36.341 28.874 36.4941 28.8798C37.728 28.9166 38.4909 28.9041 38.4942 28.8355" fill="#17282F"/>
<path d="M42.0738 16.1619C42.2402 16.4722 43.418 16.1434 44.8535 16.1091C46.2873 16.0464 47.4852 16.294 47.6299 15.9745C47.6926 15.8214 47.45 15.5428 46.9448 15.2935C46.4429 15.0434 45.6716 14.8477 44.8117 14.8761C43.9509 14.9062 43.1955 15.153 42.712 15.4366C42.2243 15.7202 42.0002 16.0146 42.0738 16.1619" fill="#17282F"/>
<path d="M30.5608 16.1942C30.8168 16.4627 31.7813 16.149 32.9507 16.1022C34.1176 16.021 35.1156 16.2268 35.3356 15.9324C35.4309 15.7893 35.2679 15.5175 34.827 15.2682C34.3945 15.0206 33.6743 14.8273 32.8712 14.8717C32.0682 14.916 31.3789 15.1854 30.9807 15.4798C30.5741 15.7743 30.447 16.0629 30.5608 16.1942" fill="#17282F"/>
<path d="M55.6471 23.5731C55.7809 23.5112 61.0401 21.8382 60.9949 27.2454C60.9514 32.6526 55.5316 31.4932 55.5233 31.3376C55.5157 31.1828 55.6471 23.5731 55.6471 23.5731Z" fill="#9D575A"/>
<path d="M57.1918 29.3024C57.2152 29.2857 57.2855 29.3693 57.4436 29.4438C57.5983 29.5166 57.8652 29.5676 58.1479 29.4639C58.7209 29.2589 59.2095 28.3555 59.2438 27.3818C59.2613 26.8891 59.1618 26.4198 58.9911 26.0308C58.8289 25.6335 58.5754 25.3549 58.2885 25.3014C58.0024 25.2328 57.7975 25.4043 57.7305 25.5557C57.6561 25.7063 57.6895 25.8142 57.6611 25.8234C57.646 25.8367 57.5457 25.7322 57.5908 25.5088C57.6143 25.4018 57.6795 25.2746 57.8067 25.1717C57.9372 25.0672 58.1287 25.0153 58.3286 25.0387C58.7452 25.0705 59.1175 25.457 59.3065 25.8853C59.5173 26.3144 59.6403 26.8422 59.6202 27.3943C59.5767 28.4843 59.0104 29.499 58.2274 29.719C57.846 29.8144 57.5298 29.6973 57.3675 29.5684C57.2002 29.4329 57.1726 29.3125 57.1918 29.3024" fill="#773C3E"/>
<path d="M32.6044 7.05275C31.7378 6.55502 34.4121 3.76611 36.5787 2.8267C39.8537 1.40798 44.8317 0.584845 47.8147 1.48493C51.4051 2.56989 54.3713 4.41523 56.1263 7.73033C57.8822 11.0446 58.4979 14.8817 58.3289 18.6284C58.277 19.7719 58.1382 20.9615 57.5108 21.9193C56.7362 23.1013 55.2739 23.8299 55.3099 25.4795C55.3225 26.0826 55.1401 26.6882 54.7202 27.1207C53.7122 28.1563 52.5193 27.1466 51.9798 26.1462C50.827 24.008 50.7384 21.4776 50.6748 19.05C50.6296 17.3235 50.5894 15.5609 51.1039 13.9138C51.3833 13.0163 51.8233 12.1722 52.0534 11.2613C52.2826 10.3503 52.2725 9.31219 51.7163 8.55598C51.6251 8.43302 51.4753 8.27658 51.2846 8.10425C49.7755 6.73655 47.6399 6.29823 45.7084 6.94402C42.6451 7.96959 37.4186 9.48951 36.0776 8.433C34.1503 6.91389 33.6994 5.93686 33.6994 5.93686L32.6044 7.05275" fill="#17282F"/>
<path d="M47.5433 0.746439C44.5896 -0.29753 41.2059 -0.303375 38.4019 1.09193C36.9121 1.83224 35.5578 3.03429 35.0809 4.62702C34.6033 6.22057 35.2533 8.20228 36.7824 8.85476L36.887 8.92336C39.1807 9.73896 40.6856 9.45622 42.9994 8.69918C44.946 8.06175 46.6868 6.89732 48.6367 6.26994C50.7096 5.6024 52.9824 5.5748 55.0703 6.19215C53.0434 3.8039 50.4979 1.79124 47.5433 0.746439" fill="#17282F"/>
<path d="M54.4689 5.39069C54.4563 5.41077 54.233 5.26772 53.7963 5.0954C53.3605 4.92224 52.6946 4.74573 51.8565 4.7357C51.0191 4.7198 50.0212 4.88963 48.9856 5.29366C47.9466 5.68766 46.8767 6.29664 45.7675 6.9625C44.6583 7.62837 43.5867 8.26244 42.536 8.69241C41.4904 9.13242 40.4698 9.34908 39.6099 9.36832C38.7483 9.39425 38.0557 9.24201 37.6065 9.07554C37.3815 8.99607 37.2125 8.91575 37.1029 8.85385C36.9916 8.79362 36.9372 8.75765 36.9406 8.74929C36.9506 8.68989 37.9076 9.28382 39.6024 9.18846C40.4397 9.14496 41.4243 8.9191 42.4449 8.47574C43.4696 8.04243 44.527 7.41003 45.637 6.74249C46.7471 6.07663 47.8353 5.4643 48.9027 5.07281C49.9659 4.67212 51.0007 4.51486 51.8615 4.55502C52.7231 4.58848 53.4024 4.79843 53.8348 5.00421C54.0532 5.10376 54.2138 5.19914 54.3175 5.27108C54.4212 5.34218 54.4739 5.38316 54.4689 5.39069" fill="#33535F"/>
<path d="M52.214 3.58218C52.1998 3.64241 51.339 3.09115 49.7931 3.12544C49.0302 3.14134 48.1218 3.30781 47.1782 3.67253C46.2329 4.0339 45.2642 4.60189 44.2847 5.25437C43.3051 5.90852 42.3925 6.57273 41.5116 7.10977C40.6358 7.65016 39.7951 8.06088 39.0557 8.31853C38.3162 8.57617 37.688 8.68827 37.253 8.72089C37.0347 8.73595 36.8665 8.7418 36.7511 8.73427C36.6356 8.73093 36.5762 8.72424 36.5762 8.71587C36.5687 8.66233 37.5541 8.70667 38.9937 8.14955C39.7106 7.87434 40.5279 7.45524 41.3878 6.91067C42.2511 6.36861 43.1571 5.70108 44.1433 5.04191C45.1304 4.38525 46.1192 3.81223 47.0946 3.4517C48.0683 3.09032 49.0051 2.93807 49.7915 2.94476C50.5786 2.95313 51.206 3.10871 51.6125 3.27016C51.8158 3.35297 51.9689 3.42408 52.0685 3.48431C52.168 3.54036 52.2182 3.57381 52.214 3.58218" fill="#33535F"/>
<path d="M57.73 10.5637C57.7468 10.5687 57.7142 10.7151 57.6397 10.9761C57.5695 11.2396 57.4348 11.6102 57.2407 12.056C56.8551 12.9486 56.1641 14.1264 55.1519 15.2239C54.1364 16.3172 53.0155 17.0969 52.1555 17.5503C51.7256 17.7786 51.3667 17.9417 51.1099 18.0321C50.8539 18.1258 50.7117 18.1701 50.705 18.1534C50.6874 18.1124 51.2412 17.8832 52.0669 17.393C52.8917 16.907 53.9699 16.1215 54.9646 15.0499C55.9558 13.975 56.656 12.8399 57.0776 11.9799C57.5017 11.1191 57.6865 10.5495 57.73 10.5637" fill="#33535F"/>
<path d="M58.3422 14.3906C58.3564 14.3914 58.358 14.5328 58.317 14.7846C58.2794 15.0364 58.1799 15.3961 57.9883 15.8118C57.6127 16.6458 56.7737 17.6605 55.5758 18.3832C54.3812 19.1077 53.1683 19.4715 52.3034 19.7099C51.4326 19.9433 50.8863 20.0496 50.8771 20.0186C50.8671 19.9818 51.3983 19.8128 52.2515 19.5376C53.0997 19.2557 54.2842 18.8693 55.4428 18.1657C56.6005 17.4656 57.4228 16.5136 57.826 15.7315C58.2409 14.9477 58.2928 14.3797 58.3422 14.3906" fill="#33535F"/>
<path d="M39.5906 1.65987C39.6165 1.68664 39.2978 2.02042 38.8026 2.57168C38.3132 3.12294 37.6407 3.90424 37.1538 4.90889C36.6695 5.91271 36.5465 6.94496 36.631 7.6652C36.708 8.39213 36.9321 8.80622 36.8878 8.82462C36.8744 8.83131 36.805 8.73678 36.7121 8.54689C36.6193 8.357 36.5164 8.06506 36.4528 7.68946C36.3165 6.94162 36.4169 5.84746 36.9238 4.79847C37.4315 3.75199 38.1443 2.97237 38.6713 2.44704C39.2058 1.92255 39.568 1.63645 39.5906 1.65987" fill="#33535F"/>
<path d="M35.793 4.18369C35.8708 4.20126 35.4116 5.31548 35.7144 6.6974C35.9896 8.08601 36.8562 8.92254 36.7918 8.97022C36.7717 8.99113 36.5274 8.81964 36.233 8.44238C35.9369 8.06762 35.6165 7.46951 35.4651 6.74927C35.3154 6.02904 35.3706 5.3523 35.491 4.89138C35.6115 4.42712 35.7662 4.17198 35.793 4.18369" fill="#33535F"/>
<path d="M58.6841 31.2807C58.6214 31.2773 58.6114 31.642 58.4315 32.149C58.3395 32.3974 58.1806 32.6768 57.907 32.8391C57.6452 33.003 57.2504 33.019 56.9208 32.8542C56.592 32.6936 56.3821 32.3623 56.3034 32.0419C56.2189 31.7173 56.2666 31.4045 56.3528 31.156C56.5326 30.655 56.8112 30.4132 56.766 30.3689C56.7451 30.3329 56.3837 30.4985 56.0985 31.0498C55.9646 31.32 55.8701 31.7048 55.9529 32.1189C56.0299 32.5246 56.2867 32.9746 56.7476 33.203C57.1952 33.4255 57.733 33.3945 58.1003 33.1419C58.4683 32.8918 58.6256 32.5171 58.6942 32.2301C58.823 31.6379 58.7268 31.279 58.6841 31.2807Z" fill="#17282F"/>
<path d="M60.5034 29.8286C60.4616 29.8687 60.6255 30.0511 60.5645 30.3706C60.5377 30.5237 60.4507 30.7044 60.3001 30.8115C60.1546 30.9186 59.9246 30.947 59.7046 30.8751C59.2353 30.732 59.0905 30.2468 59.1232 29.9164C59.1466 29.5768 59.2729 29.3744 59.2236 29.3401C59.1926 29.3074 58.9642 29.4614 58.8522 29.8696C58.8011 30.0703 58.7869 30.3364 58.8957 30.6116C59.0002 30.8893 59.2595 31.1411 59.5841 31.2448C59.907 31.3527 60.2809 31.3025 60.5226 31.0926C60.7627 30.8843 60.8405 30.6066 60.8389 30.3907C60.828 29.9265 60.5151 29.7792 60.5034 29.8286" fill="#17282F"/>
<path d="M60.8745 26.2449C60.8628 26.3034 61.0828 26.3611 61.2886 26.6012C61.501 26.8313 61.6382 27.2763 61.3705 27.6586C61.1179 28.0517 60.6537 28.0944 60.3609 27.9856C60.0606 27.8861 59.9234 27.7054 59.8749 27.738C59.8314 27.7514 59.8882 28.025 60.2463 28.2358C60.4211 28.3336 60.6679 28.4072 60.9489 28.3646C61.2325 28.3244 61.5153 28.1421 61.6935 27.8761C61.8725 27.6092 61.9335 27.278 61.8633 27.0011C61.7955 26.725 61.6341 26.5242 61.4768 26.3996C61.1455 26.1495 60.8712 26.1997 60.8745 26.2449" fill="#17282F"/>
<path d="M40.8706 29.9113C40.6891 29.9046 40.7175 31.1151 39.7045 32.0001C38.694 32.8885 37.4008 32.7864 37.3966 32.9554C37.3807 33.0324 37.6894 33.1829 38.234 33.1838C38.7676 33.188 39.5431 32.9964 40.1629 32.4543C40.7811 31.9123 41.0346 31.2021 41.0622 30.7052C41.0956 30.1982 40.9526 29.9021 40.8706 29.9113" fill="#17282F"/>
<path d="M35.1102 40.93C34.9923 40.9241 34.922 40.4063 35.0592 39.789C35.1947 39.1725 35.4758 38.7316 35.5854 38.776C35.6983 38.822 35.6105 39.3047 35.4842 39.8835C35.3553 40.4607 35.2332 40.9359 35.1102 40.93Z" fill="#17282F"/>
<path d="M36.5854 41.1257C36.4658 41.1023 36.4449 40.7083 36.4675 40.2391C36.4926 39.7698 36.5545 39.3808 36.6749 39.3691C36.7937 39.3574 36.9292 39.7572 36.9024 40.2616C36.8774 40.7661 36.7008 41.15 36.5854 41.1257Z" fill="#17282F"/>
<path d="M37.9282 41.2219C37.8077 41.216 37.7316 40.7961 37.7575 40.2841C37.7826 39.7722 37.9014 39.3623 38.0227 39.3681C38.1423 39.374 38.2184 39.7939 38.1925 40.3059C38.1666 40.8178 38.0486 41.2277 37.9282 41.2219Z" fill="#17282F"/>
<path d="M39.6801 40.837C39.5613 40.8587 39.3966 40.5066 39.3112 40.0498C39.2242 39.5923 39.2502 39.2041 39.369 39.1815C39.4877 39.1598 39.6534 39.512 39.7387 39.9687C39.8249 40.4263 39.7989 40.8144 39.6801 40.837Z" fill="#17282F"/>
<path d="M91.9073 262.464C91.9449 262.612 91.2808 262.887 90.7671 263.55C90.2351 264.198 90.1147 264.906 89.9607 264.902C89.816 264.929 89.693 264.026 90.3464 263.214C90.993 262.398 91.9015 262.316 91.9073 262.464" fill="#17282F"/>
<path d="M94.1608 266.339C94.0211 266.375 93.7927 265.606 94.1742 264.754C94.5498 263.898 95.2725 263.551 95.3394 263.679C95.4297 263.804 94.968 264.266 94.6652 264.972C94.3464 265.67 94.3138 266.322 94.1608 266.339Z" fill="#17282F"/>
<path d="M32.5513 48.5279L37.1981 46.2434L54.8711 46.5521L58.1971 48.5279L54.8711 55.9695L45.3742 57.5907H38.0823L34.0235 51.9166L32.5513 48.5279Z" fill="#9D575A"/>
<path d="M20.1132 50.1959C20.1132 50.1959 14.4257 51.0708 12.2374 55.0083C10.0508 58.9458 8.44632 66.5296 8.44632 66.5296C8.44632 66.5296 5.96689 70.1751 5.67578 75.134C5.67578 75.134 8.04646 72.2313 12.8941 72.2171C18.0261 72.202 24.3426 77.9045 24.3426 77.9045L20.1132 50.1959Z" fill="#F2575D"/>
<path d="M20.1136 50.196L30.6136 48.0077L35.8418 46.5857C35.8418 46.5857 33.5305 55.7379 45.1973 55.446C56.8642 55.1549 55.9859 46.5857 55.9859 46.5857C55.9859 46.5857 65.3029 49.2617 65.7605 49.3211C66.607 49.4306 73.7818 51.2166 73.7818 51.2166L71.156 70.1753L71.3024 100.801C71.3024 100.801 73.1979 121.947 73.7818 126.323L74.8015 136.531C74.8015 136.531 50.3017 140.906 39.6563 136.531C29.0091 132.156 16.1025 128.902 16.1025 128.902C16.1025 128.902 17.0512 121.801 17.7798 114.509C18.5092 107.218 20.6975 102.259 20.6975 102.259C20.6975 102.259 18.8011 56.321 18.9467 55.8835C19.0931 55.446 20.1136 50.196 20.1136 50.196" fill="#F2575D"/>
<path d="M55.5813 91.2905H35.167V70.8763H55.5813V91.2905Z" fill="white"/>
<path d="M73.7818 51.2165C73.7818 51.2165 76.1475 50.9062 79.1824 56.1495C82.2181 61.3919 83.5055 68.6587 83.5055 68.6587L84.3328 75.9246C84.3328 75.9246 76.6076 68.1986 68.3286 74.5444L70.5362 66.6351C70.5362 66.6351 68.6975 60.6566 70.0761 56.4255C71.4555 52.1944 73.7818 51.2165 73.7818 51.2165" fill="#F2575D"/>
<path d="M19.7119 104.995L19.7128 104.992C19.7128 104.992 19.7119 104.993 19.7119 104.995ZM20.2615 103.37C20.2456 102.994 20.3853 102.683 20.6246 102.43C20.5501 102.609 20.423 102.927 20.2615 103.37Z" fill="#A7A9A8"/>
<path d="M50.5308 110.618C47.9401 110.618 45.3419 110.483 42.7554 110.347C39.3549 110.168 35.906 109.981 32.6762 108.905C30.6828 108.242 28.7806 107.242 26.701 106.94C25.3049 106.737 23.8728 106.856 22.4883 106.581C21.1056 106.307 20.126 106.344 19.7119 104.995C19.7119 104.993 19.7128 104.993 19.7128 104.992L20.2649 103.426C20.2632 103.407 20.2624 103.389 20.2615 103.371C20.423 102.927 20.5501 102.609 20.6246 102.43C21.1808 101.841 22.2733 101.57 23.1667 101.518C26.0276 101.355 28.8868 101.283 31.7477 101.283C44.9504 101.283 58.1489 102.842 71.2788 104.4C67.548 107.711 62.6351 109.456 57.6963 110.162C55.3223 110.502 52.9291 110.618 50.5308 110.618" fill="#CC4341"/>
<path d="M5.6761 75.1339C5.64013 75.8683 4.96422 87.3629 5.6761 92.075C6.3863 96.787 6.98441 99.6262 8.62816 100.372C10.2719 101.12 13.4708 101.12 15.0091 101.718C16.5475 102.315 20.582 105.154 28.5012 103.81C36.4205 102.464 47.0283 94.8447 50.3158 94.2465C53.6033 93.6493 56.7411 93.4995 56.7411 93.4995L65.5237 91.5287L66.6028 84.3849C66.6028 84.3849 48.074 84.6835 45.2357 84.983C42.3965 85.2816 38.2123 86.477 29.8455 86.0286C21.4779 85.5811 23.7197 85.4314 23.7197 85.4314L24.3429 77.9044C24.3429 77.9044 19.3782 72.9272 14.0036 72.3056C8.62818 71.6849 5.6761 75.1339 5.6761 75.1339" fill="#9D575A"/>
<path d="M18.9146 85.4275C18.5089 84.8746 18.452 83.6365 18.9798 83.1999C18.2964 82.4905 17.7752 81.6256 17.4682 80.6887C17.285 80.129 17.2039 79.4423 17.6079 79.014C17.3327 78.5823 17.0575 78.1306 16.9781 77.6245C16.9003 77.1176 17.0651 76.5387 17.5042 76.2744C18.1266 75.8988 18.923 76.3028 19.4909 76.757C20.0949 77.2397 20.6453 77.7901 21.128 78.3933C20.7189 77.9984 20.9205 77.2347 21.4116 76.9486C21.9026 76.6625 22.54 76.7654 23.0402 77.0339C24.0056 77.5501 24.8806 78.5455 25.4319 79.4908C26.7636 81.772 28.6926 83.9737 30.338 86.0399" fill="#9D575A"/>
<path d="M30.3382 86.0396C30.314 86.0589 30.0337 85.7518 29.5402 85.1847C29.0475 84.6158 28.3348 83.7944 27.4924 82.7412C27.0725 82.2142 26.6216 81.6278 26.1648 80.977C25.6889 80.3421 25.2932 79.5616 24.7829 78.8774C24.2601 78.199 23.5909 77.5256 22.7745 77.1424C22.3746 76.9726 21.8978 76.9241 21.5389 77.1266C21.2027 77.2997 21.0144 77.8267 21.2018 78.1362L21.2796 78.2366L20.9584 78.5294C20.5326 77.9982 20.0633 77.518 19.5639 77.0956C19.0812 76.6765 18.52 76.3143 17.9837 76.3385C17.4434 76.3544 17.1288 76.9141 17.1606 77.4377C17.184 77.9664 17.4801 78.4574 17.7654 78.9142L17.8441 79.0388L17.7437 79.1417C17.4701 79.4228 17.4592 79.8812 17.537 80.2794C17.619 80.6826 17.7738 81.0724 17.9319 81.4212C18.2573 82.123 18.6688 82.6843 19.0645 83.1177L19.1515 83.2114L19.0553 83.2908C18.8035 83.4983 18.7266 83.8471 18.6939 84.1198C18.6688 84.4025 18.6914 84.6485 18.7291 84.8434C18.8043 85.234 18.9374 85.4122 18.9148 85.4273C18.9047 85.4407 18.7282 85.2775 18.6078 84.8727C18.5484 84.6727 18.5032 84.4143 18.5116 84.1073C18.535 83.8095 18.5751 83.4188 18.9047 83.1085L18.8947 83.2808C18.4647 82.8516 18.0138 82.282 17.6516 81.5559C17.4735 81.1903 17.3053 80.803 17.2007 80.348C17.1087 79.9138 17.0745 79.3299 17.4735 78.8866L17.4526 79.1141C17.1598 78.6557 16.8084 78.1329 16.7632 77.4553C16.7482 77.1232 16.816 76.7727 17.0159 76.4682C17.2125 76.1604 17.5772 75.9412 17.9545 75.922C18.7182 75.8927 19.3272 76.3369 19.8416 76.766C20.3636 77.2043 20.8546 77.7038 21.298 78.2567L20.9776 78.5495L20.827 78.3579C20.5058 77.7464 20.8003 77.0529 21.3289 76.7468C21.8626 76.4573 22.4683 76.5477 22.9426 76.7501C23.8828 77.2018 24.5546 77.9137 25.1033 78.6365C25.6462 79.3868 26.0009 80.1313 26.4626 80.7721C26.901 81.4246 27.3335 82.0168 27.7358 82.553C28.513 83.5677 29.1637 84.4151 29.6715 85.0776C30.1249 85.6782 30.3608 86.022 30.3382 86.0396" fill="#773C3E"/>
<path d="M26.7185 85.2968C26.6231 85.3713 25.1852 83.7635 23.5063 81.7082C21.8274 79.652 20.5408 77.9221 20.632 77.8435C20.724 77.7649 22.162 79.3718 23.8442 81.433C25.5265 83.4933 26.813 85.2241 26.7185 85.2968Z" fill="#773C3E"/>
<path d="M22.7169 84.3474C22.6341 84.4286 21.3926 83.3344 19.9614 81.8764C18.5251 80.42 17.5129 79.0925 17.6083 79.0138C17.6994 78.9402 18.8438 80.1222 20.2734 81.5719C21.6988 83.0249 22.8055 84.2596 22.7169 84.3474Z" fill="#773C3E"/>
<path d="M21.1408 85.4952C21.0529 85.578 20.4983 85.1296 19.9019 84.4972C19.3054 83.8623 18.8922 83.2818 18.98 83.1998C19.0679 83.117 19.6216 83.5637 20.2189 84.1978C20.8153 84.8319 21.2278 85.4124 21.1408 85.4952Z" fill="#773C3E"/>
<path d="M31.0821 86.0843C31.0804 86.1445 30.018 86.1462 28.3007 86.1002C27.3997 86.0692 26.3859 86.0341 25.2833 85.9956C24.154 85.9546 22.8884 85.9053 21.5977 85.7522C20.3019 85.6334 19.0638 85.5941 17.9538 85.7095C16.8429 85.8191 15.8642 86.0793 15.0896 86.408C14.3183 86.7393 13.7277 87.1023 13.3789 87.421C13.0117 87.7196 12.795 87.8794 12.7733 87.8585C12.7515 87.8393 12.9264 87.6394 13.2685 87.2922C13.5922 86.9258 14.1778 86.5084 14.9633 86.1261C15.7529 85.748 16.7635 85.446 17.9095 85.3097C19.0563 85.1691 20.3253 85.1984 21.6361 85.318C22.9469 85.4736 24.1733 85.5313 25.3101 85.5949C26.4085 85.6669 27.4181 85.7329 28.314 85.7915C30.0247 85.917 31.0829 86.0249 31.0821 86.0843" fill="#773C3E"/>
<path d="M68.3286 74.5442C68.3286 74.5442 66.1553 82.42 65.5238 91.5288L39.9666 93.1742L29.603 103.043C29.603 103.043 36.4566 107.723 48.9658 107.976C61.475 108.23 66.7877 105.826 72.8608 105.572C78.9339 105.32 81.0846 104.054 82.2231 100.132C83.3624 96.2107 84.2917 83.7693 84.3327 81.197C84.3746 78.6239 83.7104 75.3724 83.7104 75.3724C83.7104 75.3724 76.3223 68.5673 68.3286 74.5442" fill="#9D575A"/>
<path d="M65.7822 91.5415C65.6668 91.5465 65.507 89.6092 65.6702 87.2217C65.8291 84.8343 66.249 82.9363 66.3619 82.9564C66.4858 82.9764 66.2616 84.8879 66.106 87.2519C65.9429 89.6142 65.9085 91.539 65.7822 91.5415" fill="#773C3E"/>
<path d="M65.9141 91.1256C65.9225 91.139 65.8145 91.2193 65.6012 91.3615C65.3896 91.5071 65.065 91.6987 64.6359 91.9304C63.7785 92.3896 62.4811 92.9685 60.7972 93.4311C59.1174 93.9012 57.0546 94.24 54.7609 94.3839C53.6207 94.4684 52.4337 94.5654 51.2734 94.956C50.1107 95.3358 48.937 95.8946 47.7316 96.43C42.9292 98.5664 38.5835 100.499 35.3571 101.934C33.751 102.601 32.4025 103.026 31.4565 103.253C30.9838 103.369 30.6132 103.442 30.3598 103.479C30.1071 103.519 29.9733 103.531 29.9708 103.517C29.9633 103.483 30.4869 103.366 31.4121 103.089C32.3373 102.814 33.6565 102.349 35.2358 101.651C36.8218 100.966 38.6538 100.014 40.7543 99.0909C42.8523 98.1473 45.1485 97.1142 47.5593 96.0301C48.7681 95.4939 49.9325 94.9393 51.1429 94.5487C52.3576 94.1471 53.5948 94.056 54.7333 93.9832C57.0161 93.8619 59.048 93.5599 60.7177 93.1333C62.389 92.7142 63.6865 92.1872 64.5606 91.7798C65.4331 91.3674 65.8957 91.0938 65.9141 91.1256" fill="#773C3E"/>
<path d="M72.8126 94.0485C72.7365 94.1565 71.2935 93.1459 69.2792 92.4207C67.2699 91.6778 65.5165 91.5206 65.5274 91.3893C65.5224 91.2805 67.346 91.2429 69.4289 92.0116C71.5152 92.7645 72.887 93.9691 72.8126 94.0485Z" fill="#773C3E"/>
<path d="M23.5539 76.6734C23.4954 76.6834 23.3088 75.8929 23.0763 74.603C22.8446 73.3139 22.5727 71.5238 22.341 69.5388C22.1093 67.552 21.962 65.7477 21.8918 64.4394C21.8207 63.1311 21.8198 62.3196 21.8792 62.3155C21.9403 62.3113 22.0499 63.1143 22.1988 64.4134C22.3635 65.8673 22.5585 67.5872 22.7734 69.4886C23.0018 71.3866 23.2076 73.1048 23.3816 74.5578C23.5347 75.8569 23.6142 76.6633 23.5539 76.6734" fill="#17282F"/>
<path d="M68.3282 74.5443C68.2638 74.5326 68.3842 73.6426 68.5524 72.2038C68.7197 70.765 68.9012 68.7749 69.0526 66.5682C69.2049 64.3606 69.3596 62.3538 69.5729 60.9125C69.7779 59.4695 70.0012 58.5937 70.0548 58.6037C70.1192 58.6155 70.0046 59.5055 69.8791 60.9477C69.7444 62.389 69.639 64.3866 69.4876 66.5991C69.3353 68.8109 69.1036 70.8127 68.8577 72.2473C68.6101 73.6827 68.3826 74.5544 68.3282 74.5443Z" fill="#17282F"/>
<path d="M22.0043 59.2059C21.8755 59.2352 21.4924 57.5588 20.4944 55.7235C19.514 53.8782 18.327 52.6334 18.4224 52.5422C18.4893 52.4561 19.8587 53.6021 20.8784 55.5169C21.9123 57.4233 22.1131 59.1976 22.0043 59.2059" fill="#17282F"/>
<path d="M57.402 47.581C57.4162 47.5827 57.4162 47.7048 57.402 47.939C57.3861 48.1732 57.3459 48.5196 57.2397 48.9537C57.0481 49.8237 56.5654 51.0617 55.5967 52.3466C54.6423 53.6365 53.1516 54.9189 51.2477 55.8583C49.3497 56.8103 47.0802 57.4209 44.6794 57.7806C43.4774 57.9596 42.2602 58.0424 41.1033 57.8392C39.9506 57.6468 38.8841 57.2293 37.9739 56.6672C36.1286 55.5563 34.9608 53.8841 34.4179 52.3784C33.8566 50.8601 33.8315 49.5259 33.9068 48.6417C33.9537 48.1975 34.0172 47.8562 34.0766 47.6287C34.1369 47.402 34.1753 47.2857 34.1896 47.289C34.2289 47.2966 34.1151 47.7767 34.0766 48.6526C34.0532 49.5225 34.1268 50.8166 34.7057 52.2671C35.267 53.7076 36.4071 55.2794 38.1814 56.3234C39.0564 56.8521 40.0778 57.2411 41.1719 57.4184C42.2669 57.6049 43.4339 57.5255 44.615 57.3498C46.9849 56.9943 49.2125 56.4054 51.0712 55.4978C52.9342 54.6019 54.3939 53.3881 55.3534 52.1576C56.3245 50.9338 56.8382 49.7492 57.0766 48.9102C57.3217 48.0679 57.3601 47.576 57.402 47.581" fill="#17282F"/>
<path d="M43.9224 59.3114C40.4525 59.3114 36.8723 58.116 36.6255 55.6583C36.9852 55.9879 37.3834 56.2966 37.8217 56.5735C38.2324 56.873 38.6808 57.1114 39.1601 57.277C39.7683 57.5321 40.4207 57.7254 41.1033 57.8391C41.5793 57.9228 42.0645 57.9579 42.5555 57.9579C43.2582 57.9579 43.9717 57.886 44.6794 57.7806C47.0802 57.4209 49.3497 56.8102 51.2477 55.8583C52.5092 55.2359 53.5899 54.4621 54.4532 53.6356C54.0375 55.0134 52.8413 56.0063 51.6543 56.8621C50.3844 57.7781 48.2271 58.7217 46.6954 59.0404C45.8271 59.2211 44.8794 59.3114 43.9224 59.3114V59.3114ZM44.8032 57.3213C44.8241 57.3172 44.8459 57.313 44.8668 57.3088C46.1784 57.0478 47.5194 56.7717 48.8168 56.3953C47.5637 56.7993 46.2094 57.1022 44.8032 57.3213" fill="#CC4341"/>
<path d="M42.5552 57.958C42.0642 57.958 41.579 57.9229 41.1031 57.8392C40.4205 57.7255 39.768 57.5322 39.1598 57.2771C39.5421 57.4093 39.9445 57.4954 40.3636 57.5297C40.8747 57.5715 41.3808 57.5941 41.8852 57.5941C42.8614 57.5941 43.8284 57.5105 44.8029 57.3214C46.2091 57.1023 47.5634 56.7994 48.8165 56.3954C50.948 55.7764 52.9615 54.8855 54.5274 53.3455C54.5065 53.4442 54.4814 53.5404 54.453 53.6357C53.5897 54.4622 52.5089 55.236 51.2475 55.8584C49.3494 56.8103 47.0799 57.421 44.6791 57.7807C43.9715 57.8861 43.2579 57.958 42.5552 57.958V57.958ZM37.8214 56.5736C37.3831 56.2967 36.9849 55.988 36.6252 55.6584C36.616 55.5689 36.6118 55.4786 36.6118 55.3857C36.9657 55.8441 37.3714 56.2457 37.8214 56.5736" fill="#0F191D"/>
<path d="M119.938 117.09C119.437 116.769 108.836 112.034 108.836 112.034L106.048 118.059L112.768 122.885C112.768 122.885 110.982 121.668 109.999 122.947C109.015 124.225 110.428 124.777 110.428 124.777L115.955 127.669C116.534 127.972 117.242 127.884 117.728 127.447L121.618 123.956L119.938 117.09Z" fill="#F8A58D"/>
<path d="M115.887 117.929C116.509 119.869 117.13 121.808 117.75 123.747C117.824 123.977 117.887 124.259 117.721 124.434C117.563 124.601 117.288 124.566 117.073 124.483C116.518 124.27 116.074 123.839 115.714 123.367C115.354 122.895 115.063 122.375 114.714 121.895C114.512 121.616 114.28 121.344 113.968 121.201C113.634 121.045 113.25 121.058 112.882 121.037C111.836 120.978 110.799 120.626 109.968 119.988C109.136 119.35 108.519 118.422 108.31 117.395" fill="#F8A58D"/>
<path d="M108.311 117.395C108.289 117.398 108.297 117.679 108.463 118.155C108.629 118.627 108.98 119.296 109.655 119.911C110.323 120.526 111.334 121.044 112.533 121.19C113.139 121.274 113.765 121.165 114.169 121.564C114.382 121.749 114.558 122.008 114.742 122.286C114.927 122.558 115.114 122.834 115.303 123.113C115.654 123.674 116.134 124.224 116.741 124.544C116.893 124.62 117.048 124.694 117.237 124.728C117.413 124.76 117.654 124.757 117.837 124.587C118.019 124.417 118.03 124.168 118.004 124.003C117.979 123.828 117.922 123.68 117.879 123.546C117.516 122.465 117.184 121.475 116.893 120.606C116.607 119.771 116.369 119.098 116.196 118.635C116.023 118.172 115.914 117.921 115.888 117.929C115.862 117.937 115.92 118.205 116.049 118.682C116.177 119.159 116.373 119.846 116.626 120.692C116.893 121.568 117.198 122.567 117.53 123.656C117.626 123.928 117.693 124.227 117.577 124.31C117.481 124.415 117.172 124.344 116.922 124.2C116.404 123.918 115.979 123.45 115.62 122.874C115.431 122.597 115.244 122.322 115.061 122.052C114.882 121.786 114.693 121.503 114.424 121.27C114.162 121.028 113.786 120.903 113.467 120.881C113.142 120.852 112.855 120.86 112.575 120.826C111.448 120.709 110.491 120.25 109.84 119.7C109.181 119.148 108.809 118.534 108.606 118.098C108.403 117.656 108.343 117.388 108.311 117.395" fill="#F68260"/>
<path d="M116.231 124.103C115.005 123.877 113.879 123.296 112.746 122.776C112.324 122.582 111.891 122.393 111.43 122.35C110.969 122.306 110.468 122.43 110.16 122.776C109.853 123.123 109.627 124.155 109.965 124.472L116.112 127.75" fill="#F8A58D"/>
<path d="M116.112 127.75C116.136 127.706 115.484 127.304 114.395 126.683C113.306 126.062 111.78 125.222 110.058 124.298L110.1 124.328C110.026 124.26 109.981 124.046 109.998 123.841C110.012 123.607 110.071 123.363 110.163 123.154C110.249 122.94 110.382 122.803 110.575 122.695C110.956 122.487 111.42 122.498 111.831 122.612C112.659 122.869 113.407 123.287 114.052 123.531C115.344 124.075 116.228 124.156 116.231 124.103C116.242 124.046 115.404 123.873 114.165 123.273C113.529 122.997 112.844 122.569 111.93 122.26C111.472 122.123 110.9 122.083 110.39 122.353C110.141 122.475 109.906 122.727 109.802 122.994C109.688 123.256 109.62 123.527 109.602 123.819C109.594 124.07 109.594 124.363 109.829 124.616L109.843 124.632L109.872 124.646C111.599 125.562 113.146 126.362 114.269 126.92C115.391 127.478 116.087 127.797 116.112 127.75" fill="#F68260"/>
<path d="M122.155 82.1095C123.566 85.0378 124.517 88.2588 124.353 91.5049C124.19 94.7503 122.805 98.0223 120.232 100.009C119.738 100.39 119.148 100.736 118.528 100.66C117.908 100.586 117.355 99.8889 117.642 99.3348C117.105 100.28 116.373 101.114 115.505 101.771C115.216 101.989 114.879 102.197 114.519 102.159C114.003 102.106 113.662 101.547 113.662 101.028C113.663 100.509 113.914 100.028 114.158 99.5703C113.525 99.5352 112.982 99.9781 112.421 100.272C111.859 100.566 111.037 100.655 110.703 100.115C110.405 99.6343 110.715 99.0185 111.019 98.5414C112.408 96.36 113.813 94.0567 114.045 91.4805C114.21 89.646 113.765 87.7695 114.145 85.9669C114.606 83.7711 116.367 81.9007 118.531 81.3077C119.778 80.967 121.284 81.1057 122.112 82.0973" fill="#17282F"/>
<path d="M135.846 96.5223C137.091 94.8234 139.467 94.2648 140.459 92.4088C142.207 89.1414 141.978 86.1186 141.853 82.4151C141.768 79.8794 142.015 76.2796 140.459 74.2758C139.365 72.865 138.586 72.0037 137.606 70.5106C136.53 68.8712 135.412 66.9238 136.457 65.2638" fill="#17282F"/>
<path d="M135.342 96.565C136.061 95.8135 137.113 95.392 138.153 95.4423C138.679 95.4667 139.198 95.613 139.665 95.8577L136.456 64.8613C137.861 64.673 141.159 66.564 142.092 67.6303C143.025 68.6974 143.579 70.035 144.117 71.3452C146.326 76.7224 147.543 82.1262 145.099 87.0179L145.234 89.309C145.44 92.7899 144.035 96.1214 141.559 98.5771L141.521 98.6152C141.41 98.7273 141.288 98.8462 141.164 98.972C140.374 99.7669 140.005 100.895 140.18 102.002L140.187 102.048C140.24 102.37 140.31 102.694 140.269 103.018C140.228 103.342 140.048 103.671 139.744 103.787C139.25 103.975 138.734 103.528 138.513 103.047C138.292 102.568 138.215 102.012 137.878 101.606C137.494 102.127 137.395 102.804 137.074 103.366C136.753 103.927 136 104.366 135.472 103.991C135.25 103.833 135.131 103.572 135.026 103.321C134.567 102.217 134.201 101.054 134.181 99.8599C134.16 98.6656 134.517 97.4285 135.342 96.565Z" fill="#17282F"/>
<path d="M118.575 78.2574L119.572 105.171C119.742 109.748 123.707 113.251 128.269 112.856C132.527 112.487 135.498 108.895 135.335 104.624C135.258 102.598 135.301 100.2 135.307 99.991C135.307 99.991 142.049 98.4766 142.292 91.6772C142.41 88.3914 142.331 82.8701 141.981 76.7323C141.605 70.141 136.222 64.9475 129.622 64.7927L128.966 64.7775C121.88 65.0244 118.131 71.1813 118.575 78.2574" fill="#F9B1A2"/>
<path d="M135.336 100.025C135.336 100.025 131.03 100.275 126.528 97.2968C126.528 97.2968 128.509 102.242 135.311 101.788L135.336 100.025Z" fill="#EC8975"/>
<path d="M138.892 81.7932C138.898 82.3061 138.468 82.7352 137.932 82.7512C137.397 82.7673 136.957 82.3648 136.951 81.8519C136.945 81.3389 137.375 80.9098 137.91 80.8931C138.446 80.8771 138.885 81.2802 138.892 81.7932" fill="#17282F"/>
<path d="M140.057 79.2795C139.96 79.3831 139.186 79.3275 138.193 79.6545C137.2 79.9738 136.546 80.4951 136.421 80.4631C136.36 80.4509 136.445 80.2924 136.728 80.0607C137.007 79.832 137.507 79.534 138.125 79.332C138.744 79.1308 139.298 79.0859 139.631 79.1164C139.97 79.1453 140.106 79.2314 140.057 79.2795" fill="#17282F"/>
<path d="M129.223 81.7932C129.229 82.3061 128.799 82.7352 128.263 82.7512C127.728 82.7673 127.289 82.3656 127.282 81.8519C127.277 81.3389 127.706 80.9098 128.241 80.8931C128.777 80.8771 129.216 81.2802 129.223 81.7932" fill="#17282F"/>
<path d="M130.022 80.8276C129.869 80.8497 129.202 80.3215 128.099 79.9633C126.999 79.5966 126.079 79.602 125.985 79.4983C125.938 79.4511 126.113 79.3779 126.517 79.3718C126.913 79.3627 127.554 79.4381 128.24 79.6637C128.928 79.8909 129.457 80.2003 129.739 80.432C130.028 80.6668 130.096 80.82 130.022 80.8276Z" fill="#17282F"/>
<path d="M133.776 87.8305C133.772 87.771 134.424 87.6742 135.48 87.5645C135.747 87.5431 136.001 87.4959 136.051 87.3145C136.119 87.1232 136.013 86.8328 135.892 86.5195C135.655 85.8678 135.408 85.1849 135.15 84.4685C134.121 81.5493 133.384 79.1515 133.501 79.1111C133.619 79.0707 134.549 81.4045 135.577 84.3237C135.824 85.0432 136.06 85.7291 136.285 86.3854C136.379 86.691 136.545 87.0393 136.399 87.4364C136.322 87.6346 136.123 87.7741 135.951 87.816C135.779 87.8648 135.629 87.864 135.496 87.8686C134.436 87.9013 133.778 87.8899 133.776 87.8305" fill="#17282F"/>
<path d="M130.683 88.4814C130.853 88.4761 130.829 89.6102 131.781 90.4379C132.731 91.2687 133.944 91.1696 133.949 91.3289C133.963 91.3998 133.675 91.5423 133.163 91.5446C132.663 91.55 131.935 91.3724 131.352 90.8655C130.772 90.3579 130.532 89.6933 130.504 89.2268C130.472 88.7512 130.606 88.473 130.683 88.4814Z" fill="#17282F"/>
<path d="M130.044 76.6485C129.934 76.9305 128.893 76.7712 127.664 76.8901C126.432 76.9846 125.435 77.32 125.278 77.0616C125.208 76.9381 125.387 76.6752 125.793 76.4084C126.195 76.1432 126.834 75.897 127.573 75.8322C128.31 75.7697 128.981 75.9015 129.424 76.0944C129.87 76.2857 130.091 76.5143 130.044 76.6485Z" fill="#17282F"/>
<path d="M140.129 77.0021C139.939 77.2354 139.225 76.9724 138.36 76.9404C137.496 76.8779 136.757 77.0624 136.594 76.8101C136.523 76.6881 136.644 76.4526 136.97 76.2354C137.291 76.0189 137.823 75.8482 138.417 75.8802C139.012 75.913 139.522 76.1401 139.818 76.3909C140.118 76.6416 140.213 76.8886 140.129 77.0021Z" fill="#17282F"/>
<path d="M108.574 87.7886C108.786 86.4898 108.914 85.1781 109.052 83.8687C109.292 81.5913 114.114 73.3803 114.114 73.3803C115.649 70.1502 117.466 66.9879 120.058 64.558C122.648 62.1274 126.118 60.4888 129.63 60.7677C133.141 61.0467 136.562 63.5413 137.354 67.0397L136.763 66.1548C136.895 67.3933 135.576 68.3339 134.358 68.4314C133.139 68.5282 131.938 68.0946 130.716 68.0564C128.332 67.9833 126.086 69.4695 124.721 71.4619C123.356 73.4542 122.756 75.8902 122.457 78.3017C122.157 80.7125 122.13 83.1553 121.774 85.5584C121.392 88.1331 119.936 89.0195 118.003 90.7214C116.207 92.303 114.401 94.2381 112.969 96.1337C112.446 96.8235 111.064 97.4477 110.297 97.2777C109.53 97.107 109.317 95.9652 109.209 95.1733C109.105 94.2877 109.658 93.4317 109.693 92.2359C108.95 91.9028 108.512 91.0766 108.399 90.2565C108.286 89.4364 108.44 88.6056 108.574 87.7886" fill="#17282F"/>
<path d="M119.612 84.8144C119.498 84.761 114.971 83.3228 115.012 87.9759C115.052 92.629 119.715 91.6298 119.721 91.4964C119.728 91.3631 119.612 84.8144 119.612 84.8144Z" fill="#F9B1A2"/>
<path d="M118.285 89.7459C118.265 89.7307 118.204 89.8031 118.068 89.8671C117.935 89.9296 117.705 89.973 117.462 89.8846C116.969 89.7086 116.548 88.9311 116.518 88.0927C116.503 87.6697 116.589 87.2658 116.736 86.9304C116.875 86.5889 117.093 86.3489 117.34 86.3031C117.586 86.2437 117.762 86.3908 117.82 86.5211C117.884 86.6507 117.855 86.7437 117.88 86.7513C117.893 86.7627 117.979 86.6728 117.94 86.4807C117.92 86.3885 117.864 86.2795 117.754 86.1903C117.642 86.1012 117.477 86.0562 117.305 86.076C116.947 86.1042 116.626 86.4373 116.464 86.8046C116.283 87.1743 116.177 87.6286 116.195 88.1042C116.232 89.0416 116.72 89.9151 117.394 90.1041C117.722 90.1864 117.994 90.0851 118.134 89.9746C118.278 89.8579 118.301 89.7535 118.285 89.7459" fill="#EC8975"/>
<path d="M111.144 93.7152L111.051 93.6298C110.996 93.5681 110.904 93.482 110.809 93.3501C110.606 93.0971 110.333 92.6924 110.103 92.1146C109.631 90.9881 109.352 89.0529 110.225 86.9722C110.646 85.9394 111.321 84.9029 112.205 83.9425C113.084 82.9692 114.214 82.1445 115.301 81.2017C115.843 80.7276 116.376 80.217 116.822 79.6209C117.275 79.0318 117.616 78.3458 117.872 77.6141C118.385 76.1424 118.522 74.5059 118.774 72.8452C119.006 71.1775 119.464 69.5556 120.21 68.1356C120.948 66.7134 121.981 65.4992 123.19 64.6464C124.393 63.7889 125.762 63.2798 127.077 63.1898C128.393 63.0862 129.614 63.3293 130.664 63.6746C131.719 64.0229 132.614 64.4833 133.37 64.9253C134.132 65.3651 134.729 65.8559 135.125 66.3399C135.525 66.8224 135.693 67.3003 135.744 67.6219C135.789 67.9481 135.748 68.1189 135.748 68.1189C135.729 68.1196 135.742 67.9466 135.678 67.6341C135.606 67.3262 135.427 66.8788 135.024 66.4245C134.627 65.9688 134.034 65.5061 133.277 65.0884C132.52 64.6662 131.629 64.2279 130.591 63.9009C129.557 63.5763 128.367 63.3552 127.101 63.4673C125.836 63.5656 124.528 64.0648 123.371 64.8979C122.209 65.7287 121.216 66.9032 120.502 68.2881C119.781 69.6737 119.336 71.2461 119.106 72.8962C118.855 74.541 118.718 76.1988 118.182 77.7224C117.916 78.4792 117.555 79.2002 117.078 79.8153C116.609 80.4357 116.057 80.9578 115.505 81.4357C114.394 82.3861 113.275 83.1902 112.41 84.1331C111.535 85.0637 110.867 86.0667 110.445 87.0637C109.569 89.0705 109.801 90.9508 110.225 92.0674C110.653 93.2129 111.188 93.6878 111.144 93.7152" fill="#33535F"/>
<path d="M146.151 120.309C146.151 120.309 172.158 100.7 174.05 99.5353C177.396 97.4759 180.831 70.5519 180.831 70.5519L172.579 67.6122L165.96 90.2268L141.151 105.585L146.151 120.309" fill="#F9B1A2"/>
<path d="M174.429 70.7439C174.429 70.7439 172.339 69.4436 171.858 67.8072C171.376 66.1708 170.839 56.3394 170.839 56.3394C170.839 56.3394 172.12 56.0064 172.881 57.8623C173.447 59.2395 174.156 62.3584 174.156 62.3584C174.156 62.3584 175.477 56.7815 175.93 54.8707C176.327 53.1924 177.029 50.6726 177.932 50.6429C178.835 50.6139 178.131 53.8791 178.112 55.3097C178.093 56.7403 178.02 58.7685 178.02 58.7685C177.975 58.8661 179.737 52.1787 180.694 50.5225C181.393 49.3129 182.797 50.3838 182.284 51.9013C182.284 51.9013 183.45 50.6132 183.754 51.9638C184.058 53.3136 182.268 59.783 182.733 59.831C183.199 59.879 184.952 54.7015 185.796 54.4736C186.275 54.3456 186.601 55.0148 186.219 56.3516C185.838 57.6877 182.87 67.7386 182.133 69.0107C181.396 70.2828 180.663 70.564 180.663 70.564L174.429 70.7439" fill="#F9B1A2"/>
<path d="M180.243 64.7791C180.235 64.7356 179.782 64.7585 179.084 64.9841C178.39 65.2051 177.456 65.6624 176.611 66.4216L176.914 66.5031L176.875 66.3888C176.503 65.292 175.929 64.3987 175.444 63.8248C174.959 63.2471 174.582 62.9681 174.55 63.0017C174.459 63.0748 175.809 64.3873 176.52 66.51L176.558 66.619L176.652 66.8911L176.861 66.7005C178.479 65.231 180.285 64.888 180.243 64.7791" fill="#EC8975"/>
<path d="M182.349 51.658C182.257 51.6336 181.621 53.4438 180.917 55.7151C180.211 57.9902 179.916 59.9101 180.02 59.9277C180.12 59.9452 180.574 58.0847 181.275 55.8226C181.977 53.5596 182.457 51.6877 182.349 51.658Z" fill="#EC8975"/>
<path d="M133.429 107.676L163.598 91.0531C163.598 91.0531 163.477 89.9533 164.285 89.3763C165.093 88.7986 165.549 89.6042 165.549 89.6042L175.798 94.8907C176.8 95.4082 177.113 96.6902 176.458 97.6086C174.624 100.184 171.176 104.866 169.272 106.448C167.387 108.015 143.194 124.081 143.194 124.081L133.429 107.676" fill="#F2575D"/>
<path d="M190.424 66.9597C190.445 66.9681 190.528 66.8088 190.66 66.5123C190.796 66.2173 190.959 65.776 191.128 65.2212C191.471 64.1122 191.779 62.5177 191.783 60.7372C191.781 58.9576 191.473 57.3623 191.132 56.2533C190.963 55.6977 190.8 55.2564 190.664 54.9614C190.533 54.6649 190.45 54.5057 190.429 54.514C190.377 54.5346 190.629 55.203 190.906 56.3151C191.185 57.4248 191.45 58.9919 191.451 60.7372C191.448 62.4826 191.183 64.0497 190.903 65.1587C190.625 66.2707 190.372 66.9384 190.424 66.9597" fill="#17282F"/>
<path d="M194.465 62.4315C194.488 62.4353 194.54 62.263 194.615 61.946C194.694 61.6297 194.774 61.1639 194.842 60.5839C194.98 59.4262 195.008 57.7974 194.723 56.0322C194.433 54.2677 193.888 52.7319 193.389 51.6779C193.141 51.1497 192.917 50.7335 192.742 50.4584C192.57 50.1817 192.466 50.0346 192.446 50.046C192.398 50.0727 192.739 50.7045 193.175 51.7716C193.613 52.8356 194.111 54.3531 194.396 56.0855C194.676 57.818 194.685 59.4155 194.608 60.5633C194.534 61.7135 194.411 62.4208 194.465 62.4315" fill="#17282F"/>
<path d="M167.123 65.4362C167.175 65.4362 167.195 64.7517 167.285 63.6549C167.374 62.5574 167.558 61.0475 167.918 59.4096C168.282 57.7717 168.751 56.3243 169.132 55.2915C169.513 54.258 169.782 53.63 169.736 53.6079C169.7 53.5903 169.354 54.1848 168.914 55.2054C168.475 56.2244 167.963 57.6794 167.595 59.3379C167.231 60.9964 167.081 62.5315 167.052 63.6412C167.02 64.7517 167.084 65.4369 167.123 65.4362Z" fill="#17282F"/>
<path d="M163.205 66.8431C163.261 66.84 163.216 65.9742 163.292 64.5839C163.365 63.1945 163.606 61.2791 164.184 59.2373C164.767 57.1961 165.571 55.4408 166.24 54.2206C166.908 52.9988 167.402 52.2869 167.356 52.2542C167.337 52.2412 167.197 52.4066 166.959 52.7198C166.718 53.03 166.4 53.5026 166.037 54.1047C165.309 55.3067 164.457 57.0749 163.865 59.1466C163.278 61.2189 163.072 63.1701 163.058 64.5756C163.05 65.2783 163.072 65.8484 163.114 66.2387C163.151 66.6297 163.182 66.8453 163.205 66.8431" fill="#17282F"/>
<path d="M121.144 138.887L129.64 179.391L112.43 179.196L105.144 143.257L89.8787 143.085C88.6218 143.071 87.6142 142.04 87.6287 140.784C87.6432 139.527 88.6729 138.519 89.9297 138.534L121.144 138.887" fill="#33535F"/>
<path d="M234.196 237.226L236.351 251.269C236.351 251.269 251.35 253.795 252 256.352L224.922 261.508L220.666 239.764L234.196 237.226Z" fill="#F2575D"/>
<path d="M224.922 261.508L252 256.352C251.35 253.795 236.351 251.269 236.351 251.269L234.196 237.226L220.666 239.764L224.922 261.508Z" fill="#CC4341"/>
<path d="M227.755 251.691C227.258 251.933 227.008 252.592 227.23 253.098C227.453 253.604 228.12 253.864 228.621 253.63C229.122 253.396 229.446 252.615 229.168 252.137C228.891 251.658 228.09 251.396 227.66 251.744" fill="#17282F"/>
<path d="M224.921 261.508L224.509 259.4L250.67 255.181C250.67 255.181 251.975 255.476 252 256.352L224.921 261.508Z" fill="#17282F"/>
<path d="M236.764 251.048C236.785 251.181 236.135 251.367 235.566 251.916C234.981 252.45 234.755 253.087 234.624 253.058C234.497 253.055 234.543 252.227 235.245 251.574C235.94 250.916 236.77 250.921 236.764 251.048Z" fill="#17282F"/>
<path d="M239.828 251.682C239.883 251.804 239.353 252.138 239.011 252.782C238.649 253.417 238.651 254.044 238.518 254.063C238.397 254.107 238.158 253.35 238.6 252.557C239.034 251.759 239.801 251.556 239.828 251.682Z" fill="#17282F"/>
<path d="M242.089 254.774C241.974 254.825 241.664 254.199 241.866 253.41C242.062 252.619 242.631 252.215 242.708 252.315C242.803 252.41 242.475 252.875 242.32 253.525C242.149 254.171 242.217 254.736 242.089 254.774" fill="#17282F"/>
<path d="M235.918 247.902C235.885 248.033 235.244 247.966 234.506 248.159C233.765 248.337 233.231 248.699 233.14 248.599C233.046 248.518 233.521 247.92 234.392 247.705C235.263 247.483 235.963 247.786 235.918 247.902" fill="#17282F"/>
<path d="M225.055 238.001L227.211 252.043C227.211 252.043 242.209 254.569 242.86 257.125L215.781 262.283L211.525 240.54L225.055 238.001Z" fill="#F2575D"/>
<path d="M218.614 252.464C218.117 252.709 217.867 253.366 218.089 253.872C218.312 254.379 218.979 254.639 219.48 254.404C219.981 254.17 220.305 253.389 220.027 252.911C219.75 252.433 218.95 252.17 218.519 252.519" fill="#17282F"/>
<path d="M215.781 262.283L215.369 260.174L241.529 255.955C241.529 255.955 242.834 256.251 242.86 257.125L215.781 262.283Z" fill="#17282F"/>
<path d="M227.623 251.822C227.644 251.955 226.994 252.141 226.425 252.69C225.841 253.225 225.615 253.861 225.483 253.832C225.356 253.83 225.402 253.001 226.104 252.349C226.799 251.69 227.629 251.695 227.623 251.822Z" fill="#17282F"/>
<path d="M230.688 252.456C230.743 252.579 230.213 252.912 229.87 253.558C229.509 254.192 229.511 254.818 229.378 254.838C229.258 254.882 229.019 254.125 229.46 253.331C229.894 252.534 230.661 252.331 230.688 252.456" fill="#17282F"/>
<path d="M232.948 255.548C232.833 255.6 232.523 254.974 232.725 254.185C232.921 253.395 233.49 252.991 233.567 253.09C233.662 253.184 233.335 253.649 233.179 254.299C233.008 254.946 233.077 255.51 232.948 255.548Z" fill="#17282F"/>
<path d="M226.777 248.677C226.744 248.807 226.103 248.741 225.365 248.933C224.623 249.112 224.09 249.473 223.999 249.373C223.904 249.292 224.379 248.695 225.251 248.479C226.122 248.257 226.822 248.56 226.777 248.677" fill="#17282F"/>
<path d="M161.475 165.081C161.475 165.081 210.713 165.886 215.129 165.687C224.472 165.267 228.117 171.573 229.394 180.518C229.786 183.258 236.83 243.323 236.83 243.323L219.781 246.846L208.21 192.244C208.21 192.244 162.703 193.874 158.401 194.606C153.164 195.498 145.941 198.285 142.002 195.227C138.063 192.168 135.67 176.476 135.67 176.476L161.475 165.081Z" fill="#17282F"/>
<path d="M157.661 165.065C157.661 165.065 201.783 165.786 206.2 165.587C215.542 165.165 219.187 171.473 220.464 180.417C220.856 183.158 227.9 245.039 227.9 245.039L211.275 248.741L199.281 192.143C199.281 192.143 153.774 193.774 149.472 194.505C144.234 195.396 137.012 198.184 133.072 195.126C129.133 192.066 126.74 176.375 126.74 176.375L157.661 165.065Z" fill="#17282F"/>
<path d="M202.785 165.618C202.785 165.623 202.865 165.626 203.02 165.626C203.192 165.623 203.419 165.62 203.708 165.616C204.312 165.629 205.205 165.633 206.346 165.755C207.487 165.871 208.88 166.071 210.458 166.468C211.247 166.667 212.081 166.918 212.935 167.263C213.79 167.596 214.67 168.033 215.475 168.645C215.88 168.946 216.251 169.311 216.557 169.731C216.864 170.16 217.131 170.642 217.382 171.136C217.878 172.132 218.285 173.221 218.597 174.382C219.236 176.702 219.539 179.272 219.916 181.962C220.658 187.347 221.409 193.275 222.165 199.502C223.667 211.962 224.966 223.25 226.035 231.405C226.561 235.483 227.019 238.78 227.349 241.055C227.519 242.177 227.651 243.055 227.744 243.674C227.791 243.959 227.828 244.184 227.856 244.354C227.882 244.507 227.899 244.584 227.905 244.583C227.91 244.582 227.905 244.503 227.889 244.349C227.869 244.178 227.844 243.951 227.81 243.665C227.731 243.045 227.62 242.164 227.477 241.038C227.189 238.737 226.776 235.441 226.267 231.376C225.3 223.193 223.966 211.919 222.494 199.463C221.738 193.234 220.977 187.305 220.218 181.921C219.833 179.233 219.519 176.654 218.861 174.309C218.54 173.136 218.121 172.031 217.61 171.021C217.35 170.517 217.08 170.034 216.757 169.59C216.429 169.144 216.037 168.767 215.617 168.458C214.78 167.832 213.882 167.397 213.012 167.066C212.144 166.726 211.3 166.481 210.503 166.288C208.909 165.905 207.505 165.723 206.358 165.627C204.057 165.44 202.785 165.618 202.785 165.618" fill="#33535F"/>
<path d="M140.25 108.496L119.493 103.035C119.493 103.035 111.374 108.046 110.581 109.014C109.788 109.983 106.913 113.672 106.997 120.585C107.049 124.903 110.778 140.489 110.778 140.489L124.611 164.776L128.874 176.747L149.545 176.8L157.66 165.065C157.66 165.065 158.682 162.633 155.988 158.888C153.294 155.144 149.07 148.81 149.07 148.81C149.07 148.81 147.824 141.218 146.488 138.418C145.151 135.618 145.458 134.448 145.458 134.448C145.458 134.448 146.773 126.709 145.446 123.077C144.118 119.447 140.25 108.496 140.25 108.496Z" fill="#F2575D"/>
<path d="M118.102 106.275C113.102 105.701 109.971 108.827 106.996 112.887C101.13 120.89 95.5986 135.939 95.0216 137.608C94.2046 139.969 93.3532 140.49 93.0727 141.657C92.5415 143.872 92.7442 147.241 93.0003 149.637C93.1733 151.256 94.5758 152.458 96.2015 152.386L108.22 152.526C109.636 152.543 110.781 151.377 110.74 149.961L110.556 143.709C110.556 143.709 117.415 138.082 119.04 134.15C120.664 130.219 126.544 126.578 126.544 126.578C126.544 126.578 131.196 119.393 127.936 113.462C126.911 111.598 119.921 106.484 118.102 106.275" fill="#F2575D"/>
<path d="M123.535 128.499C123.517 128.484 123.332 128.683 123.012 129.052C122.653 129.481 122.208 130.012 121.681 130.641C120.568 131.992 119.05 133.872 117.388 135.961C115.712 138.038 114.292 140.003 113.036 141.202C111.797 142.425 110.801 142.891 110.834 142.945C110.84 142.959 111.099 142.868 111.526 142.621C111.954 142.376 112.546 141.969 113.197 141.372C114.52 140.19 115.974 138.24 117.647 136.166C119.309 134.077 120.799 132.175 121.865 130.787C122.358 130.132 122.776 129.579 123.113 129.133C123.401 128.738 123.553 128.512 123.535 128.499" fill="#17282F"/>
<path d="M123.426 143.224H111.975V129.788H123.426V143.224Z" fill="#CC4341"/>
<path d="M111.974 142.482C112.269 142.218 112.598 141.919 112.949 141.593C112.634 141.865 112.337 142.091 112.071 142.275C112.014 142.328 111.955 142.381 111.897 142.434C111.923 142.45 111.949 142.466 111.974 142.482ZM113.928 140.659C115.708 138.92 117.729 136.712 118.737 134.791C118.384 135.237 118.019 135.697 117.647 136.166C116.276 137.865 115.053 139.48 113.928 140.659Z" fill="#CC4341"/>
<path d="M112.071 142.275C112.337 142.091 112.634 141.864 112.949 141.593C113.03 141.522 113.113 141.449 113.196 141.372C113.436 141.159 113.68 140.919 113.928 140.659C115.053 139.48 116.276 137.865 117.647 136.166C118.019 135.697 118.385 135.237 118.737 134.791C119.956 133.249 121.037 131.863 121.864 130.787C122.101 130.472 122.32 130.181 122.522 129.913C122.413 129.967 122.319 130.031 122.263 130.097C118.663 134.344 116.238 138.436 112.071 142.275" fill="#0F191D"/>
<path d="M101.768 139.912C101.776 139.971 102.351 139.889 103.273 139.942C104.192 139.992 105.459 140.232 106.731 140.828C108.001 141.431 108.991 142.255 109.615 142.932C110.242 143.608 110.545 144.104 110.596 144.073C110.625 144.059 110.391 143.515 109.791 142.778C109.196 142.041 108.19 141.153 106.872 140.528C105.552 139.91 104.226 139.698 103.28 139.708C102.33 139.714 101.761 139.88 101.768 139.912" fill="#17282F"/>
<path d="M107.76 134.022C107.665 134.083 109.263 135.804 110.031 138.504C110.837 141.195 110.415 143.503 110.528 143.504C110.563 143.511 110.719 142.953 110.775 142.021C110.833 141.091 110.748 139.785 110.349 138.411C109.946 137.038 109.315 135.892 108.766 135.141C108.217 134.384 107.786 133.997 107.76 134.022" fill="#17282F"/>
<path d="M149.07 148.81C149.081 148.807 149.067 148.667 149.03 148.401C148.993 148.134 148.935 147.743 148.847 147.24C148.674 146.234 148.409 144.781 147.978 143.005C147.552 141.228 146.915 139.14 146.059 136.882C145.592 135.779 145.45 134.535 145.51 133.235C145.558 131.936 145.77 130.592 145.84 129.19C146.087 123.587 144.999 118.557 143.809 115.111C143.216 113.382 142.627 112.022 142.177 111.104C141.964 110.641 141.766 110.297 141.643 110.057C141.515 109.821 141.444 109.7 141.434 109.705C141.424 109.71 141.476 109.842 141.584 110.088C141.687 110.335 141.866 110.688 142.06 111.159C142.472 112.089 143.025 113.456 143.587 115.185C144.713 118.629 145.754 123.624 145.509 129.174C145.441 130.551 145.231 131.898 145.186 133.223C145.126 134.539 145.286 135.866 145.774 136.99C146.643 139.235 147.297 141.3 147.751 143.062C148.209 144.823 148.508 146.267 148.721 147.264C148.821 147.735 148.901 148.116 148.965 148.412C149.023 148.675 149.059 148.811 149.07 148.81" fill="#17282F"/>
<path d="M110.122 151.086C110.133 151.067 109.947 150.926 109.593 150.696C109.239 150.466 108.714 150.152 108.041 149.805C106.705 149.118 104.723 148.291 102.386 148.132C100.045 147.976 97.9439 148.672 96.6757 149.512C96.0347 149.927 95.5751 150.346 95.2946 150.665C95.0118 150.983 94.8845 151.181 94.899 151.192C94.9485 151.242 95.5141 150.47 96.7984 149.711C98.0605 148.947 100.098 148.312 102.365 148.462C104.634 148.616 106.589 149.389 107.938 150.015C109.295 150.65 110.094 151.133 110.122 151.086" fill="#17282F"/>
<path d="M112.286 173.75L113.142 205.914L185.277 206.135C189.144 206.147 192.298 203.039 192.341 199.171C192.385 195.339 189.357 192.176 185.527 192.052L179.288 191.849L179.626 178.15C179.675 176.148 178.078 174.493 176.076 174.47L112.286 173.75" fill="#33535F"/>
<path d="M142.985 239.67L138.769 239.623L139.249 197.159L143.465 197.206L142.985 239.67" fill="#33535F"/>
<path d="M198.69 240.123L138.771 239.446L138.811 235.905L198.73 236.581L198.69 240.123" fill="#33535F"/>
<path d="M144.397 184.259C144.55 184.259 144.702 184.259 144.855 184.261C166.619 184.506 184.124 202.412 183.877 224.174C183.758 234.716 179.541 244.581 172.003 251.952C164.464 259.322 154.523 263.327 143.964 263.196C133.422 263.077 123.557 258.86 116.187 251.321C108.816 243.783 104.823 233.826 104.942 223.283C105.061 212.741 109.278 202.876 116.817 195.505C124.246 188.243 134.025 184.259 144.397 184.259V184.259ZM144.422 263.834C154.962 263.834 164.898 259.787 172.447 252.406C180.107 244.917 184.393 234.894 184.513 224.182C184.763 202.069 166.976 183.875 144.863 183.625C134.13 183.497 124.033 187.562 116.372 195.051C108.713 202.54 104.428 212.564 104.306 223.275C104.056 245.388 121.843 263.582 143.957 263.832C144.111 263.834 144.268 263.834 144.422 263.834" fill="#DADBD8"/>
<path d="M164.486 224.303C153.538 224.171 144.665 224.059 144.665 224.051C144.665 224.042 153.538 224.143 164.486 224.274C175.426 224.406 184.3 224.518 184.3 224.526C184.3 224.534 175.426 224.434 164.486 224.303Z" fill="#DADBD8"/>
<path d="M164.18 227.578C153.399 225.674 144.662 224.124 144.663 224.117C144.665 224.109 153.403 225.646 164.185 227.55C174.96 229.453 183.698 231.002 183.697 231.01C183.695 231.018 174.955 229.48 164.18 227.578" fill="#DADBD8"/>
<path d="M163.342 230.758C153.02 227.108 144.657 224.145 144.659 224.137C144.661 224.13 153.029 227.082 163.352 230.732C173.668 234.378 182.033 237.342 182.03 237.349C182.027 237.356 173.658 234.404 163.342 230.758" fill="#DADBD8"/>
<path d="M161.996 233.755C152.411 228.462 144.648 224.167 144.651 224.16C144.655 224.155 152.424 228.439 162.009 233.732C171.586 239.021 179.353 243.317 179.349 243.323C179.345 243.33 171.573 239.045 161.996 233.755Z" fill="#DADBD8"/>
<path d="M160.177 236.492C151.583 229.708 144.622 224.206 144.627 224.2C144.632 224.195 151.599 229.687 160.194 236.471C168.782 243.25 175.745 248.754 175.739 248.759C175.735 248.765 168.765 243.271 160.177 236.492" fill="#DADBD8"/>
<path d="M157.939 238.896C150.559 230.809 144.582 224.252 144.587 224.246C144.592 224.242 150.579 230.791 157.959 238.878C165.334 246.96 171.313 253.52 171.308 253.524C171.302 253.53 165.315 246.978 157.939 238.896" fill="#DADBD8"/>
<path d="M155.342 240.905C149.372 231.727 144.538 224.287 144.544 224.283C144.551 224.279 149.394 231.713 155.364 240.891C161.331 250.063 166.165 257.506 166.159 257.509C166.152 257.512 161.308 250.077 155.342 240.905" fill="#DADBD8"/>
<path d="M152.451 242.465C148.06 232.435 144.506 224.305 144.513 224.302C144.52 224.299 148.084 232.425 152.476 242.454C156.864 252.478 160.418 260.609 160.412 260.612C160.405 260.615 156.84 252.487 152.451 242.465" fill="#DADBD8"/>
<path d="M149.344 243.53C146.659 232.916 144.49 224.313 144.496 224.311C144.503 224.309 146.685 232.909 149.37 243.524C152.052 254.132 154.223 262.736 154.216 262.738C154.208 262.74 152.027 254.138 149.344 243.53" fill="#DADBD8"/>
<path d="M146.102 244.071C145.19 233.16 144.457 224.318 144.464 224.317C144.471 224.317 145.217 233.158 146.129 244.069C147.041 254.972 147.775 263.816 147.767 263.817C147.76 263.818 147.014 254.974 146.102 244.071Z" fill="#DADBD8"/>
<path d="M142.815 244.079C143.672 233.164 144.372 224.319 144.379 224.319C144.388 224.319 143.7 233.166 142.844 244.081C141.988 254.99 141.287 263.836 141.28 263.835C141.272 263.835 141.959 254.987 142.815 244.079Z" fill="#DADBD8"/>
<path d="M139.568 243.556C142.196 232.926 144.332 224.314 144.339 224.316C144.347 224.318 142.223 232.932 139.596 243.562C136.969 254.183 134.833 262.797 134.826 262.795C134.818 262.793 136.942 254.176 139.568 243.556" fill="#DADBD8"/>
<path d="M136.454 242.506C140.793 232.453 144.316 224.31 144.322 224.313C144.329 224.316 140.818 232.463 136.479 242.516C132.143 252.561 128.62 260.708 128.613 260.705C128.606 260.701 132.118 252.551 136.454 242.506" fill="#DADBD8"/>
<path d="M133.553 240.96C139.478 231.752 144.285 224.295 144.291 224.298C144.298 224.302 139.501 231.767 133.576 240.974C127.655 250.174 122.848 257.634 122.841 257.631C122.835 257.626 127.632 250.16 133.553 240.96" fill="#DADBD8"/>
<path d="M130.945 238.962C138.288 230.84 144.242 224.262 144.248 224.267C144.253 224.272 138.308 230.858 130.965 238.98C123.627 247.096 117.672 253.676 117.666 253.67C117.66 253.665 123.607 247.078 130.945 238.962" fill="#DADBD8"/>
<path d="M128.697 236.569C137.259 229.744 144.201 224.218 144.205 224.224C144.21 224.229 137.275 229.765 128.713 236.589C120.157 243.409 113.214 248.936 113.209 248.931C113.205 248.925 120.141 243.389 128.697 236.569Z" fill="#DADBD8"/>
<path d="M126.866 233.842C136.424 228.501 144.172 224.178 144.175 224.184C144.179 224.191 136.437 228.524 126.879 233.865C117.327 239.203 109.578 243.527 109.574 243.521C109.571 243.514 117.315 239.18 126.866 233.842Z" fill="#DADBD8"/>
<path d="M125.503 230.853C135.806 227.149 144.158 224.153 144.161 224.16C144.164 224.167 135.816 227.175 125.512 230.878C115.216 234.579 106.863 237.576 106.86 237.569C106.858 237.562 115.208 234.554 125.503 230.853" fill="#DADBD8"/>
<path d="M124.651 227.681C135.423 225.719 144.153 224.135 144.155 224.143C144.156 224.15 135.427 225.746 124.656 227.707C113.892 229.666 105.159 231.25 105.158 231.243C105.156 231.236 113.887 229.64 124.651 227.681Z" fill="#DADBD8"/>
<path d="M124.328 224.409C135.275 224.224 144.147 224.082 144.147 224.089C144.147 224.096 135.276 224.252 124.328 224.436C113.388 224.62 104.515 224.763 104.515 224.756C104.515 224.748 113.388 224.593 124.328 224.409Z" fill="#DADBD8"/>
<path d="M124.539 221.128C135.372 222.713 144.151 224.004 144.149 224.012C144.149 224.019 135.368 222.74 124.535 221.155C113.709 219.571 104.928 218.279 104.93 218.272C104.931 218.264 113.713 219.543 124.539 221.128" fill="#DADBD8"/>
<path d="M125.28 217.924C135.707 221.266 144.155 223.979 144.153 223.987C144.15 223.994 135.699 221.292 125.272 217.95C114.853 214.611 106.404 211.897 106.406 211.89C106.408 211.882 114.861 214.585 125.28 217.924Z" fill="#DADBD8"/>
<path d="M126.538 214.888C136.275 219.896 144.162 223.96 144.159 223.967C144.156 223.973 136.262 219.919 126.526 214.912C116.796 209.908 108.907 205.843 108.911 205.836C108.914 205.83 116.808 209.884 126.538 214.888" fill="#DADBD8"/>
<path d="M128.276 212.099C137.064 218.628 144.184 223.923 144.179 223.929C144.175 223.935 137.048 218.649 128.26 212.121C119.476 205.596 112.355 200.3 112.36 200.293C112.364 200.287 119.492 205.575 128.276 212.099" fill="#DADBD8"/>
<path d="M130.443 209.63C138.057 217.498 144.222 223.878 144.218 223.883C144.212 223.888 138.037 217.516 130.424 209.648C122.815 201.786 116.647 195.405 116.653 195.399C116.658 195.394 122.834 201.768 130.443 209.63Z" fill="#DADBD8"/>
<path d="M132.981 207.546C139.218 216.544 144.268 223.841 144.262 223.844C144.256 223.849 139.196 216.56 132.959 207.561C126.727 198.568 121.676 191.271 121.682 191.266C121.688 191.262 126.748 198.553 132.981 207.546Z" fill="#DADBD8"/>
<path d="M135.824 205.902C140.51 215.798 144.302 223.819 144.296 223.822C144.289 223.825 140.487 215.808 135.801 205.913C131.118 196.024 127.325 188.001 127.331 187.998C127.338 187.994 131.141 196.013 135.824 205.902" fill="#DADBD8"/>
<path d="M138.898 204.745C141.895 215.275 144.32 223.81 144.313 223.812C144.305 223.814 141.87 215.282 138.872 204.752C135.876 194.229 133.451 185.692 133.458 185.69C133.466 185.688 135.901 194.222 138.898 204.745Z" fill="#DADBD8"/>
<path d="M142.121 204.109C143.353 214.988 144.346 223.805 144.338 223.806C144.331 223.807 143.327 214.991 142.094 204.112C140.864 193.239 139.871 184.421 139.878 184.42C139.886 184.419 140.89 193.236 142.121 204.109Z" fill="#DADBD8"/>
<path d="M145.407 204.005C144.869 214.941 144.426 223.803 144.419 223.802C144.41 223.802 144.84 214.939 145.379 204.004C145.917 193.076 146.36 184.211 146.368 184.212C146.375 184.212 145.945 193.077 145.407 204.005" fill="#DADBD8"/>
<path d="M148.668 204.434C146.356 215.136 144.476 223.807 144.469 223.806C144.461 223.804 146.329 215.13 148.641 204.428C150.952 193.733 152.832 185.06 152.839 185.062C152.847 185.063 150.979 193.739 148.668 204.434" fill="#DADBD8"/>
<path d="M151.813 205.391C147.774 215.567 144.494 223.811 144.487 223.809C144.48 223.806 147.748 215.556 151.788 205.38C155.825 195.211 159.105 186.965 159.112 186.967C159.119 186.97 155.85 195.221 151.813 205.391" fill="#DADBD8"/>
<path d="M154.758 206.85C149.106 216.228 144.52 223.824 144.514 223.82C144.507 223.816 149.083 216.214 154.735 206.836C160.383 197.466 164.969 189.868 164.976 189.871C164.982 189.876 160.406 197.48 154.758 206.85" fill="#DADBD8"/>
<path d="M157.424 208.77C150.322 217.104 144.562 223.852 144.556 223.848C144.551 223.843 150.302 217.086 157.403 208.753C164.501 200.426 170.261 193.675 170.268 193.68C170.274 193.685 164.521 200.443 157.424 208.77" fill="#DADBD8"/>
<path d="M159.743 211.097C151.385 218.169 144.607 223.896 144.602 223.891C144.598 223.884 151.367 218.149 159.726 211.077C168.079 204.01 174.858 198.282 174.863 198.288C174.867 198.293 168.096 204.03 159.743 211.097" fill="#DADBD8"/>
<path d="M161.652 213.769C152.255 219.389 144.637 223.938 144.633 223.932C144.63 223.926 152.241 219.365 161.638 213.746C171.029 208.13 178.648 203.581 178.652 203.586C178.656 203.593 171.042 208.154 161.652 213.769" fill="#DADBD8"/>
<path d="M163.101 216.716C152.912 220.723 144.653 223.965 144.65 223.958C144.647 223.951 152.902 220.698 163.091 216.692C173.274 212.688 181.535 209.445 181.538 209.451C181.54 209.458 173.283 212.712 163.101 216.716" fill="#DADBD8"/>
<path d="M164.048 219.862C153.339 222.141 144.66 223.982 144.658 223.975C144.657 223.968 153.334 222.115 164.043 219.836C174.744 217.559 183.426 215.718 183.427 215.724C183.429 215.732 174.75 217.585 164.048 219.862" fill="#DADBD8"/>
<path d="M164.466 223.123C153.528 223.625 144.664 224.025 144.664 224.018C144.664 224.01 153.527 223.598 164.465 223.096C175.394 222.596 184.26 222.195 184.26 222.202C184.26 222.21 175.395 222.622 164.466 223.123Z" fill="#DADBD8"/>
<path d="M147.628 224.097C147.61 225.703 146.294 226.99 144.688 226.972C143.082 226.954 141.795 225.638 141.814 224.032C141.831 222.426 143.147 221.139 144.753 221.157C146.359 221.175 147.646 222.492 147.628 224.097Z" fill="#33535F"/>
<path d="M205.706 259.018C205.761 254.163 201.869 250.182 197.014 250.127C192.159 250.073 188.178 253.964 188.123 258.819C188.068 263.675 191.96 267.655 196.815 267.71C201.671 267.765 205.651 263.873 205.706 259.018ZM208.241 259.047C208.17 265.302 203.042 270.316 196.787 270.245C190.532 270.175 185.518 265.046 185.588 258.791C185.659 252.535 190.787 247.522 197.043 247.593C203.298 247.663 208.312 252.791 208.241 259.047Z" fill="#17282F"/>
<path d="M198.491 257.828L195.773 257.798L196.455 197.416L186.908 197.308L186.939 194.591L199.204 194.729L198.491 257.828" fill="#33535F"/>
<path d="M211.108 263.387C211.11 263.046 211.506 213.472 211.358 204.086C211.327 202.15 210.686 200.672 209.397 199.568C205.698 196.396 198.094 197.408 198.017 197.418L197.64 194.726C198.001 194.675 206.525 193.533 211.161 197.498C213.052 199.116 214.032 201.319 214.076 204.043C214.225 213.459 213.828 263.063 213.826 263.405L211.108 263.387" fill="#33535F"/>
<path d="M232.701 264.084L210.912 263.839L210.942 261.183L232.731 261.429L232.701 264.084" fill="#33535F"/>
<path d="M187.086 224.209C187.358 200.154 168.471 180.439 144.901 180.173C121.332 179.907 102.004 199.191 101.732 223.244C101.461 247.299 120.348 267.015 143.917 267.281C167.487 267.547 186.814 248.264 187.086 224.209V224.209ZM190.33 224.246C190.044 249.606 169.251 269.934 143.891 269.647C118.529 269.361 98.2024 248.569 98.4882 223.208C98.7748 197.847 119.566 177.519 144.928 177.806C170.29 178.093 190.616 198.884 190.33 224.246" fill="#17282F"/>
<path d="M95.4098 152.024C95.4098 152.024 95.7436 152.787 96.5538 155.838C97.3648 158.889 115.48 185.794 115.48 185.794C115.48 185.794 116.788 189.695 118.467 190.728C120.145 191.762 126.732 194.032 126.732 194.032L129.219 192.37C129.219 192.37 131.108 193.575 132.305 192.405C133.501 191.236 133.63 190.223 133.63 190.223C133.63 190.223 134.505 192.092 135.361 191.088C136.217 190.084 136.227 189.239 136.227 189.239L134.435 183.304L132.25 182.265C132.25 182.265 135.286 182.807 137.323 181.985C137.323 181.985 139.321 181.13 139.438 180.408L138.869 179.496C138.869 179.496 136.297 180.048 134.89 179.778C133.484 179.509 128.402 178.224 128.402 178.224L122.825 179.1L110.449 153.813L109.605 150.766C104.375 148.242 99.4189 147.063 95.4258 150.606L95.4098 152.024" fill="#F9B1A2"/>
<path d="M110.583 109.705C110.607 109.722 110.769 109.542 111.161 109.331C111.543 109.115 112.13 108.842 112.88 108.603C113.254 108.498 113.68 108.354 114.098 108.419C114.56 108.476 115.05 108.558 115.56 108.672C116.579 108.904 117.676 109.268 118.764 109.788C120.955 110.822 122.622 112.3 123.683 113.472C124.734 114.662 125.229 115.526 125.291 115.489C125.314 115.476 125.205 115.251 124.987 114.857C124.763 114.466 124.4 113.921 123.895 113.289C122.871 112.047 121.185 110.492 118.935 109.43C117.818 108.896 116.687 108.532 115.638 108.315C115.112 108.207 114.607 108.137 114.132 108.091C113.607 108.036 113.174 108.213 112.791 108.337C111.253 108.886 110.5 109.643 110.583 109.705" fill="#17282F"/>
<path d="M136.628 107.543C136.628 107.543 136.382 103.137 135.846 102.463C135.311 101.788 119.152 98.4538 118.84 99.5574C118.528 100.66 118.84 103.441 118.84 103.441C118.84 103.441 134.53 107.802 136.628 107.543Z" fill="#F2575D"/>
<path d="M119.312 103.262C119.302 103.288 119.526 103.393 119.941 103.56C120.355 103.726 120.962 103.949 121.719 104.201C123.234 104.703 125.359 105.307 127.749 105.791C130.141 106.26 132.321 106.595 133.938 106.624C134.745 106.63 135.398 106.527 135.833 106.405C136.268 106.284 136.49 106.165 136.481 106.144C136.464 106.079 135.524 106.435 133.945 106.343C132.377 106.245 130.201 105.867 127.827 105.402C125.453 104.922 123.331 104.364 121.801 103.932C120.272 103.5 119.331 103.207 119.312 103.262" fill="#17282F"/>
<path d="M127.929 105.537C128.046 105.528 127.999 104.416 128.332 103.112C128.65 101.804 129.215 100.846 129.115 100.783C129.038 100.718 128.287 101.63 127.946 103.016C127.595 104.4 127.829 105.557 127.929 105.537" fill="#17282F"/>
<path d="M123.665 104.149C123.781 104.129 123.652 103.168 123.924 102.04C124.179 100.907 124.719 100.102 124.624 100.033C124.553 99.9592 123.818 100.718 123.537 101.95C123.245 103.178 123.568 104.183 123.665 104.149" fill="#17282F"/>
<path d="M132.239 106.272C132.263 106.313 132.54 106.215 132.849 105.871C133.158 105.534 133.448 104.942 133.523 104.251C133.597 103.563 133.494 102.952 133.397 102.529C133.298 102.103 133.2 101.851 133.147 101.86C133.092 101.868 133.092 102.141 133.12 102.569C133.144 102.997 133.197 103.582 133.129 104.207C133.06 104.828 132.846 105.36 132.625 105.702C132.407 106.048 132.203 106.222 132.239 106.272" fill="#17282F"/>
<path d="M103.806 147.876C103.929 147.884 103.983 146.153 104.774 144.217C105.542 142.272 106.701 140.985 106.607 140.906C106.55 140.827 105.21 142.041 104.406 144.069C103.583 146.089 103.71 147.893 103.806 147.876Z" fill="#17282F"/>
<path d="M97.6299 147.578C97.7457 147.536 97.0521 146.076 97.2435 144.176C97.4005 142.271 98.3479 140.962 98.2412 140.9C98.2046 140.872 97.9134 141.155 97.5895 141.72C97.2656 142.282 96.9416 143.144 96.8486 144.14C96.7595 145.136 96.9203 146.042 97.1375 146.653C97.3532 147.268 97.588 147.598 97.6299 147.578Z" fill="#17282F"/>
<path d="M171.741 101.91C171.764 101.836 170.986 101.703 170.007 100.981C169.011 100.284 167.958 98.9462 166.947 97.3677C165.942 95.7801 164.931 94.3777 164.322 93.335C163.71 92.2702 163.834 91.4745 163.773 91.476C163.751 91.4715 163.682 91.6597 163.685 92.0172C163.685 92.3739 163.799 92.8914 164.072 93.4623C164.343 94.0355 164.752 94.6528 165.182 95.3449C165.632 96.0468 166.111 96.7968 166.615 97.5842C167.631 99.1733 168.761 100.541 169.847 101.213C170.379 101.555 170.859 101.749 171.2 101.835C171.541 101.922 171.736 101.932 171.741 101.91" fill="#17282F"/>
<path d="M168.589 99.5658C168.585 99.6077 169.076 99.6938 169.829 99.475C170.578 99.2654 171.537 98.6923 172.306 97.7899C173.072 96.8867 173.534 95.9241 173.836 95.2335C174.134 94.5369 174.277 94.091 174.229 94.0689C174.177 94.0445 173.944 94.4515 173.584 95.11C173.221 95.764 172.731 96.6771 172.005 97.5307C171.279 98.3813 170.415 98.9469 169.737 99.209C169.057 99.4804 168.586 99.4995 168.589 99.5658" fill="#17282F"/>
<path d="M165.122 95.1322C165.129 95.2336 166.36 95.0667 167.519 94.1376C168.687 93.2184 169.128 92.0561 169.031 92.0271C168.927 91.9692 168.361 92.9745 167.273 93.8266C166.196 94.694 165.089 95.0179 165.122 95.1322Z" fill="#17282F"/>
</svg>
