<svg width="34" height="34" viewBox="0 0 34 34" fill="none" xmlns="http://www.w3.org/2000/svg">
<path d="M17 1C8.1632 1 1 8.1632 1 17C1 25.8368 8.1632 33 17 33C25.8368 33 33 25.8368 33 17C33 8.1632 25.8368 1 17 1Z" stroke="#4540DB" stroke-width="2" stroke-linecap="round" stroke-linejoin="round"/>
<path d="M10.5996 31.6688V20.2L16.9996 9L23.3996 20.2V31.6688" stroke="#4540DB" stroke-width="2" stroke-linecap="round" stroke-linejoin="round"/>
<path d="M10.5996 20.2006C10.5996 20.2006 12.4028 21.8006 13.7996 21.8006C15.1964 21.8006 16.9996 20.2006 16.9996 20.2006C16.9996 20.2006 18.8028 21.8006 20.1996 21.8006C21.5964 21.8006 23.3996 20.2006 23.3996 20.2006" stroke="#4540DB" stroke-width="2" stroke-linecap="round" stroke-linejoin="round"/>
</svg>
